<svg xmlns="http://www.w3.org/2000/svg" width="23.326" height="18.564" viewBox="0 0 23.326 18.564">
  <defs>
    <style>
      .cls-1 {
        fill: #bb5855;
      }
    </style>
  </defs>
  <g id="Group_608" data-name="Group 608" transform="translate(16.749 -414.442)">
    <path id="Path_1387" data-name="Path 1387" class="cls-1" d="M84.788,491.869c0-1.025.035-2.051-.007-3.074a3.719,3.719,0,0,1,1.061-2.72,7.86,7.86,0,0,1,3.143-2.092l.31-.119a4.172,4.172,0,0,1-1.9-3.634,4.009,4.009,0,0,1,1.262-2.888,4.176,4.176,0,0,1,5.9.074,4.238,4.238,0,0,1-.632,6.412c.262.1.513.187.756.292a6.541,6.541,0,0,1,3.155,2.6,3.451,3.451,0,0,1,.513,1.865c-.015,1.094-.009,2.188-.012,3.282Zm.769-.8H97.589v-.291c0-.686-.012-1.372,0-2.058a3.041,3.041,0,0,0-.641-1.934,5.734,5.734,0,0,0-2.463-1.893c-.682-.28-1.4-.471-2.1-.7-.081-.027-.162-.056-.285-.1.488-.327.931-.62,1.369-.919a3.358,3.358,0,0,0,1.4-3.6,3.254,3.254,0,0,0-2.6-2.557,3.187,3.187,0,0,0-3.356,1.2,3.405,3.405,0,0,0,.836,5.015c.432.278.862.557,1.335.863-.45.148-.849.286-1.252.41a7.462,7.462,0,0,0-3.365,2.027,3.034,3.034,0,0,0-.926,2.331c.041.645.008,1.294.008,1.942Z" transform="translate(-96.832 -58.863)"/>
    <path id="Path_1388" data-name="Path 1388" class="cls-1" d="M-12.849,422.152a4.37,4.37,0,0,1-1.3-4.052,4.224,4.224,0,0,1,1.986-2.907,4.384,4.384,0,0,1,6.035,1.376l-.614.4a3.64,3.64,0,0,0-3.371-1.672,3.451,3.451,0,0,0-2.512,1.3,3.543,3.543,0,0,0-.739,3.227,4.042,4.042,0,0,0,2.2,2.58c-.2.063-.336.107-.47.144a7.125,7.125,0,0,0-2.832,1.457,4.1,4.1,0,0,0-1.489,2.378,1.73,1.73,0,0,0-.025.3q0,1.375,0,2.75c0,.061.007.122.012.215h.278c.917,0,1.834.005,2.75,0,.2,0,.284.048.261.257a4.6,4.6,0,0,0,0,.477h-4.06v-.273c0-1.032.018-2.065,0-3.1a4.155,4.155,0,0,1,1.036-2.815,7.092,7.092,0,0,1,2.617-1.93Z" transform="translate(0 -0.08)"/>
    <path id="Path_1389" data-name="Path 1389" class="cls-1" d="M258.78,416.884l-.6-.386a4.34,4.34,0,0,1,5.689-1.57,4.22,4.22,0,0,1,2.352,3.309,4.363,4.363,0,0,1-1.312,3.822c.382.2.753.374,1.1.583a6.039,6.039,0,0,1,2.383,2.452,3.571,3.571,0,0,1,.394,1.6c.008,1.148,0,2.3,0,3.445a1.48,1.48,0,0,1-.02.167H264.73a5.835,5.835,0,0,1,.009-.619c0-.046.128-.111.2-.112.493-.01.986-.005,1.48-.005h1.341c.083,0,.166-.007.269-.012v-.64c0-.617-.028-1.235.006-1.849a3.581,3.581,0,0,0-1.139-2.776,6.924,6.924,0,0,0-3.2-1.815c-.126-.035-.251-.075-.376-.114-.012,0-.02-.02-.047-.051.223-.152.447-.3.661-.452a3.564,3.564,0,0,0,1.573-3.168,3.64,3.64,0,0,0-6.6-1.96C258.869,416.778,258.829,416.824,258.78,416.884Z" transform="translate(-262.213 0)"/>
  </g>
</svg>
