<svg xmlns="http://www.w3.org/2000/svg" width="24.662" height="24.848" viewBox="0 0 24.662 24.848">
  <defs>
    <style>
      .cls-1 {
        fill: #bb5855;
      }
    </style>
  </defs>
  <g id="Group_610" data-name="Group 610" transform="translate(-328.563 -50.053)">
    <path id="Path_1398" data-name="Path 1398" class="cls-1" d="M332.235,177.477a2.116,2.116,0,0,0-.257-.378c-.536-.486-1.089-.954-1.621-1.444a.781.781,0,0,1-.227-.407c-.515-2.874-1.018-5.75-1.528-8.625a1.644,1.644,0,0,1,.648-1.761,1.627,1.627,0,0,1,2.554,1.08c.156.863.308,1.726.462,2.589a.311.311,0,0,0,.03.06,1.869,1.869,0,0,1,1.516.828c1.076,1.31,2.168,2.605,3.263,3.9a1.3,1.3,0,0,1,.3.661c.132.8.276,1.594.416,2.39a.878.878,0,0,0,.041.116c.118-.018.233-.038.348-.054a.416.416,0,0,1,.518.365q.282,1.571.554,3.144c.052.3-.079.471-.408.53q-2.146.385-4.293.762c-.636.113-1.272.224-1.908.339-.415.075-.57-.023-.645-.433q-.274-1.508-.537-3.017c-.059-.34.072-.512.415-.572C331.964,177.532,332.055,177.513,332.235,177.477Zm1.875-2.617c-.061-.067-.1-.109-.14-.154l-2.788-3.33a1.636,1.636,0,0,1,.191-2.459.268.268,0,0,0,.084-.205c-.151-.9-.3-1.8-.473-2.691a.8.8,0,0,0-.744-.633.773.773,0,0,0-.795.521,1.5,1.5,0,0,0-.017.65q.72,4.151,1.464,8.3a.652.652,0,0,0,.185.341c.45.416.9.829,1.378,1.217a1.181,1.181,0,0,1,.53.883c0,.012.021.024.043.046l3.979-.706c-.11-.634-.246-1.225-.308-1.823a2.772,2.772,0,0,0-.755-1.591c-.987-1.127-1.935-2.289-2.9-3.44a.83.83,0,0,0-.871-.348.808.808,0,0,0-.44,1.327c.493.609,1,1.2,1.506,1.8l1.481,1.772Zm3.844,2.444-5.632,1,.427,2.416,5.63-.994Z" transform="translate(0 -106.693)"/>
    <path id="Path_1399" data-name="Path 1399" class="cls-1" d="M540.484,177.814c.184.035.3.054.415.08a.4.4,0,0,1,.36.5q-.271,1.611-.567,3.219c-.049.268-.267.362-.605.3l-1.907-.34q-2.159-.383-4.317-.766a.422.422,0,0,1-.394-.561q.265-1.5.532-2.991c.08-.448.208-.532.669-.454.066.011.133.012.229.02.078-.431.157-.855.232-1.278s.129-.86.229-1.282a1.468,1.468,0,0,1,.276-.583c1.1-1.34,2.229-2.665,3.336-4a1.809,1.809,0,0,1,1.467-.743q.158-.891.316-1.778c.053-.3.1-.6.16-.905a1.626,1.626,0,0,1,1.865-1.31,1.589,1.589,0,0,1,1.35,1.8c-.2,1.337-.453,2.668-.687,4-.281,1.6-.56,3.2-.856,4.8a.914.914,0,0,1-.257.472c-.523.488-1.071.948-1.6,1.428A1.9,1.9,0,0,0,540.484,177.814Zm-.726-.12c-.087-.544.317-.766.629-1.045.419-.374.846-.74,1.261-1.118a.53.53,0,0,0,.164-.272q.762-4.286,1.51-8.575a.812.812,0,0,0-1.594-.31c-.167.878-.317,1.759-.463,2.641a.322.322,0,0,0,.089.253,1.642,1.642,0,0,1,.215,2.4c-.718.865-1.443,1.724-2.165,2.585l-.794.948-.622-.522c.069-.086.121-.152.175-.217.929-1.11,1.861-2.217,2.786-3.331a.819.819,0,1,0-1.263-1.037q-1.7,2.025-3.395,4.054a.522.522,0,0,0-.127.215c-.157.86-.3,1.722-.46,2.612Zm.632.942-5.632-.993-.424,2.417,5.629.995Z" transform="translate(-190.92 -107.031)"/>
    <path id="Path_1400" data-name="Path 1400" class="cls-1" d="M428.047,74.737a2.654,2.654,0,0,1,.308.162c.229.162.444.346.68.5a.476.476,0,0,0,.314.042.643.643,0,0,0,.589-.735,2.741,2.741,0,0,1,.072-.531.406.406,0,0,1,.436-.378c.528,0,1.055,0,1.583,0a.4.4,0,0,1,.43.385c.043.286.085.573.121.86a.342.342,0,0,0,.211.276.681.681,0,0,0,.942-.129,2.532,2.532,0,0,1,.405-.31.4.4,0,0,1,.594.048c.371.363.737.733,1.1,1.1a.4.4,0,0,1,.044.576c-.171.234-.337.472-.522.694a.348.348,0,0,0-.044.368.645.645,0,0,0,.715.552,2.9,2.9,0,0,1,.53.074.41.41,0,0,1,.4.447q.008.78,0,1.56a.409.409,0,0,1-.392.45c-.277.045-.555.088-.834.117-.165.017-.226.106-.307.244a.656.656,0,0,0,.132.9,3.5,3.5,0,0,1,.324.427.405.405,0,0,1-.039.577q-.555.565-1.119,1.121a.4.4,0,0,1-.576.035c-.233-.172-.469-.34-.693-.523a.337.337,0,0,0-.344-.045.673.673,0,0,0-.576.754,3.162,3.162,0,0,1-.068.506.405.405,0,0,1-.427.388c-.536.005-1.072.006-1.608,0a.4.4,0,0,1-.414-.373c-.045-.286-.086-.573-.12-.86a.371.371,0,0,0-.226-.295.687.687,0,0,0-.94.148,3.407,3.407,0,0,1-.407.307.4.4,0,0,1-.556-.032q-.576-.563-1.138-1.139a.4.4,0,0,1-.025-.577c.173-.232.34-.469.523-.693a.328.328,0,0,0,.038-.346.666.666,0,0,0-.731-.57,3,3,0,0,1-.531-.07.4.4,0,0,1-.381-.433q-.009-.793,0-1.586a.407.407,0,0,1,.4-.437,2.667,2.667,0,0,1,.48-.062.68.68,0,0,0,.768-.621.4.4,0,0,0-.037-.271c-.16-.241-.345-.465-.515-.7a.413.413,0,0,1,.041-.634c.352-.359.706-.716,1.067-1.065A1.86,1.86,0,0,1,428.047,74.737Zm-1.706,5.244c.308.047.608.1.911.136a.5.5,0,0,1,.45.384,6.693,6.693,0,0,0,.338.823.513.513,0,0,1-.05.613c-.188.237-.363.485-.514.688l.626.688c.261-.195.514-.38.764-.572a.467.467,0,0,1,.524-.043q.451.2.915.38a.447.447,0,0,1,.325.382c.044.319.1.637.144.961h.919c.047-.309.1-.609.134-.912a.507.507,0,0,1,.408-.458,5.657,5.657,0,0,0,.8-.331.507.507,0,0,1,.611.049c.237.189.483.365.7.526l.675-.641c-.192-.257-.378-.511-.568-.761a.469.469,0,0,1-.044-.525q.2-.452.38-.916a.446.446,0,0,1,.381-.326c.319-.043.636-.1.961-.144V79.06c-.307-.047-.607-.1-.91-.135a.508.508,0,0,1-.458-.407,5.826,5.826,0,0,0-.33-.8.509.509,0,0,1,.049-.612c.189-.237.363-.485.524-.7l-.639-.672c-.257.192-.51.379-.76.569a.47.47,0,0,1-.524.044q-.451-.205-.915-.38a.447.447,0,0,1-.326-.382c-.044-.319-.1-.637-.144-.962h-.919c-.047.308-.1.608-.135.911a.508.508,0,0,1-.407.459,5.826,5.826,0,0,0-.8.33.507.507,0,0,1-.611-.049c-.236-.189-.484-.363-.7-.525l-.673.64c.192.258.378.511.569.762a.471.471,0,0,1,.044.525q-.2.452-.38.916a.448.448,0,0,1-.381.326c-.318.044-.636.1-.96.146Z" transform="translate(-90.338 -22.119)"/>
    <path id="Path_1401" data-name="Path 1401" class="cls-1" d="M573.87,78.7l-.549-.551.551-.553.545.547Z" transform="translate(-228.069 -25.669)"/>
    <path id="Path_1402" data-name="Path 1402" class="cls-1" d="M573.757,222.637l.5-.493.534.529-.545.534Z" transform="translate(-228.475 -160.356)"/>
    <path id="Path_1403" data-name="Path 1403" class="cls-1" d="M590.193,201.791l-.705-.409.407-.708.7.409Z" transform="translate(-243.133 -140.35)"/>
    <path id="Path_1404" data-name="Path 1404" class="cls-1" d="M528.474,249.378l.782-.21.216.787-.789.211Z" transform="translate(-186.28 -185.538)"/>
    <path id="Path_1405" data-name="Path 1405" class="cls-1" d="M450.329,61.723l.707-.409.408.706-.7.408Z" transform="translate(-113.463 -10.493)"/>
    <path id="Path_1406" data-name="Path 1406" class="cls-1" d="M413.775,99.756l-.705-.411.407-.7.705.407Z" transform="translate(-78.745 -45.274)"/>
    <path id="Path_1407" data-name="Path 1407" class="cls-1" d="M589.872,99.721l-.408-.7.705-.412.405.706Z" transform="translate(-243.111 -45.24)"/>
    <path id="Path_1408" data-name="Path 1408" class="cls-1" d="M413.066,201.053l.705-.408.409.707-.706.409Z" transform="translate(-78.741 -140.323)"/>
    <path id="Path_1409" data-name="Path 1409" class="cls-1" d="M504.49,50.849h-.776v-.8h.776Z" transform="translate(-163.208)"/>
    <path id="Path_1410" data-name="Path 1410" class="cls-1" d="M476.545,51.988l.209.787-.781.214-.215-.784Z" transform="translate(-137.158 -1.803)"/>
    <path id="Path_1411" data-name="Path 1411" class="cls-1" d="M606.3,152.024v.787h-.79v-.787Z" transform="translate(-258.063 -95.018)"/>
    <path id="Path_1412" data-name="Path 1412" class="cls-1" d="M403.739,177.193l.789-.206.209.78-.78.214Z" transform="translate(-70.05 -118.279)"/>
    <path id="Path_1413" data-name="Path 1413" class="cls-1" d="M401.859,151.978h.784v.8h-.784Z" transform="translate(-68.298 -94.975)"/>
    <path id="Path_1414" data-name="Path 1414" class="cls-1" d="M552.607,61.284l.706.41-.406.705-.707-.407Z" transform="translate(-208.387 -10.465)"/>
    <path id="Path_1415" data-name="Path 1415" class="cls-1" d="M451.45,238.461l-.407.706-.708-.405.405-.705Z" transform="translate(-113.469 -175.184)"/>
    <path id="Path_1416" data-name="Path 1416" class="cls-1" d="M552.627,239.068l-.407-.7.7-.415.411.705Z" transform="translate(-208.407 -175.084)"/>
    <path id="Path_1417" data-name="Path 1417" class="cls-1" d="M601.343,177.951l-.785-.216.211-.781.786.208Z" transform="translate(-253.449 -118.248)"/>
    <path id="Path_1418" data-name="Path 1418" class="cls-1" d="M504.475,254.163v.778h-.794v-.778Z" transform="translate(-163.177 -190.192)"/>
    <path id="Path_1419" data-name="Path 1419" class="cls-1" d="M600.749,125.048l-.21-.783.783-.217.214.787Z" transform="translate(-253.431 -68.949)"/>
    <path id="Path_1420" data-name="Path 1420" class="cls-1" d="M404.533,125.095l-.787-.208.213-.786.783.211Z" transform="translate(-70.057 -68.998)"/>
    <path id="Path_1421" data-name="Path 1421" class="cls-1" d="M476.549,249.975l-.787-.211.21-.784.784.207Z" transform="translate(-137.162 -185.363)"/>
    <path id="Path_1422" data-name="Path 1422" class="cls-1" d="M528.682,51.835l.786.217-.211.785-.781-.209Z" transform="translate(-186.282 -1.66)"/>
    <path id="Path_1423" data-name="Path 1423" class="cls-1" d="M429.106,78.318l.559-.542.523.572-.546.5Z" transform="translate(-93.688 -25.833)"/>
    <path id="Path_1424" data-name="Path 1424" class="cls-1" d="M430.1,223.761l-.516-.535.549-.506.511.5Z" transform="translate(-94.134 -160.893)"/>
    <path id="Path_1425" data-name="Path 1425" class="cls-1" d="M473.48,124.286a2.451,2.451,0,1,1,2.456,2.449A2.457,2.457,0,0,1,473.48,124.286Zm2.453,1.631a1.637,1.637,0,1,0-1.636-1.641A1.64,1.64,0,0,0,475.933,125.916Z" transform="translate(-135.036 -66.878)"/>
    <path id="Path_1426" data-name="Path 1426" class="cls-1" d="M540.4,188.041l.537.547-.549.519-.529-.517Z" transform="translate(-196.885 -128.579)"/>
    <path id="Path_1427" data-name="Path 1427" class="cls-1" d="M463.45,188.322l.529-.526.511.6-.541.483Z" transform="translate(-125.69 -128.351)"/>
    <path id="Path_1428" data-name="Path 1428" class="cls-1" d="M463.921,111.518l.551.552-.539.539-.55-.551Z" transform="translate(-125.627 -57.274)"/>
    <path id="Path_1429" data-name="Path 1429" class="cls-1" d="M540.172,111.9l.539.54-.54.54-.539-.541Z" transform="translate(-196.676 -57.633)"/>
    <path id="Path_1430" data-name="Path 1430" class="cls-1" d="M558.364,152.821h-.781v-.8h.781Z" transform="translate(-213.404 -95.019)"/>
    <path id="Path_1431" data-name="Path 1431" class="cls-1" d="M450.483,152.1v.785h-.794V152.1Z" transform="translate(-112.867 -95.092)"/>
    <path id="Path_1432" data-name="Path 1432" class="cls-1" d="M503.64,206.016h.784v.79h-.784Z" transform="translate(-163.139 -145.328)"/>
    <path id="Path_1433" data-name="Path 1433" class="cls-1" d="M503.571,98.819v-.783h.794v.783Z" transform="translate(-163.075 -44.711)"/>
  </g>
</svg>
