<svg xmlns="http://www.w3.org/2000/svg" width="27.207" height="25.56" viewBox="0 0 27.207 25.56">
  <path id="Union_3" data-name="Union 3" d="M19.828,25.057a6.817,6.817,0,0,1-6.5-6.881,6.811,6.811,0,0,1,6.559-6.511,6.7,6.7,0,1,1,.145,13.4C19.967,25.06,19.9,25.059,19.828,25.057Zm.15-11.7a4.945,4.945,0,1,0,.1,0Zm-17.314,10a2.645,2.645,0,0,1-2.18-1.233A2.559,2.559,0,0,1,0,20.579q0-8.07,0-16.142A2.862,2.862,0,0,1,2.759,1.668c.45.016.9.012,1.352.008.212,0,.423,0,.635,0h.27V.015h1.66V1.657H16.683V.02A1.314,1.314,0,0,1,16.828,0h.509c.292,0,.584,0,.876,0,.12,0,.15.041.149.155-.005.428,0,.857,0,1.285v.233h.247c.662,0,1.324,0,1.986,0a2.8,2.8,0,0,1,2.772,2.776q0,2.678,0,5.358v.2H1.684c0,.08-.009.139-.009.2q0,5.1,0,10.2a1.176,1.176,0,0,0,.373.978,1.285,1.285,0,0,0,.772.281c.394.023.789.031,1.184.03q3.622,0,7.243-.012.275,0,.551.015a.836.836,0,0,1-.038,1.67l-5.054,0Q4.685,23.369,2.664,23.361ZM2.989,3.343a1.208,1.208,0,0,0-1.311,1.3c-.005,1.129,0,2.259,0,3.388v.3H21.685c0-.054.009-.093.009-.13,0-1.191.005-2.381,0-3.572a1.2,1.2,0,0,0-1.3-1.287c-.617,0-1.236,0-1.853,0-.053,0-.106,0-.182.008v2.48H16.686V3.356H6.676V5.834H5.014V3.353c-.081,0-.135-.008-.189-.008l-1.486,0ZM19.208,19.182V15.033h1.647v2.487h2.5v1.662Zm-15.021,0V17.536H10.01V19.18Zm0-5V12.528h5.821v1.647Z" transform="translate(0.25 0.25)" fill="#bb5855" stroke="#fff" stroke-width="0.5"/>
</svg>
