<svg id="browser" xmlns="http://www.w3.org/2000/svg" width="30.262" height="27.188" viewBox="0 0 30.262 27.188">
  <defs>
    <style>
      .cls-1 {
        fill: #fff;
      }
    </style>
  </defs>
  <path id="Path_61" data-name="Path 61" class="cls-1" d="M147.182,40.591a.591.591,0,1,1-.591-.591A.591.591,0,0,1,147.182,40.591Zm0,0" transform="translate(-137.371 -37.636)"/>
  <path id="Path_62" data-name="Path 62" class="cls-1" d="M107.182,40.591a.591.591,0,1,1-.591-.591A.591.591,0,0,1,107.182,40.591Zm0,0" transform="translate(-99.735 -37.636)"/>
  <path id="Path_63" data-name="Path 63" class="cls-1" d="M67.182,40.591A.591.591,0,1,1,66.591,40,.591.591,0,0,1,67.182,40.591Zm0,0" transform="translate(-62.099 -37.636)"/>
  <path id="Path_64" data-name="Path 64" class="cls-1" d="M87.869,140H66.591a.591.591,0,0,0-.591.591v3.546a.591.591,0,0,0,.591.591H87.869a.591.591,0,0,0,.591-.591v-3.546A.591.591,0,0,0,87.869,140Zm-.591,3.546h-20.1v-2.364h20.1Zm0,0" transform="translate(-62.099 -131.725)"/>
  <path id="Path_65" data-name="Path 65" class="cls-1" d="M77.23,260H66.591a.591.591,0,0,0-.591.591v7.093a.591.591,0,0,0,.591.591H77.23a.591.591,0,0,0,.591-.591v-7.093A.591.591,0,0,0,77.23,260Zm-.591,7.093H67.182v-5.91h9.457Zm0,0" transform="translate(-62.099 -244.633)"/>
  <path id="Path_66" data-name="Path 66" class="cls-1" d="M313.684,260h-7.093a.591.591,0,0,0-.591.591v7.093a.591.591,0,0,0,.591.591h7.093a.591.591,0,0,0,.591-.591v-7.093A.591.591,0,0,0,313.684,260Zm-.591,7.093h-5.91v-5.91h5.91Zm0,0" transform="translate(-287.914 -244.633)"/>
  <path id="Path_67" data-name="Path 67" class="cls-1" d="M247.182.591A.591.591,0,1,1,246.591,0,.591.591,0,0,1,247.182.591Zm0,0" transform="translate(-231.46)"/>
  <path id="Path_68" data-name="Path 68" class="cls-1" d="M28.489,0h-10.7a.591.591,0,1,0,0,1.182h10.7a.592.592,0,0,1,.591.591V4.728H1.182V1.773a.592.592,0,0,1,.591-.591h10.7a.591.591,0,1,0,0-1.182H1.773A1.775,1.775,0,0,0,0,1.773V25.415a1.775,1.775,0,0,0,1.773,1.773H28.489a1.775,1.775,0,0,0,1.773-1.773V1.773A1.775,1.775,0,0,0,28.489,0Zm0,26.006H1.773a.592.592,0,0,1-.591-.591V5.91h27.9v19.5A.592.592,0,0,1,28.489,26.006Zm0,0"/>
</svg>
