<svg xmlns="http://www.w3.org/2000/svg" width="54.711" height="42.988" viewBox="0 0 54.711 42.988">
  <path id="noun-chat-5423996" d="M159.7,93.34a5.844,5.844,0,0,0-5.844-5.844H110.836a5.844,5.844,0,0,0-5.844,5.844v25.437a5.844,5.844,0,0,0,5.844,5.844h13.045l7.294,5.471a1.952,1.952,0,0,0,2.345,0l7.294-5.471h13.045a5.844,5.844,0,0,0,5.844-5.844V93.34Zm-3.908,0v25.437a1.937,1.937,0,0,1-1.937,1.937h-13.7a1.954,1.954,0,0,0-1.172.391l-6.643,4.983L125.7,121.1a1.954,1.954,0,0,0-1.172-.391h-13.7a1.937,1.937,0,0,1-1.937-1.937V93.34a1.937,1.937,0,0,1,1.937-1.937h43.023A1.937,1.937,0,0,1,155.8,93.34Zm-34,17.6h21.1a1.954,1.954,0,0,0,0-3.908H121.8a1.954,1.954,0,1,0,0,3.908Zm-7.034-7.816h35.171a1.954,1.954,0,0,0,0-3.908H114.763a1.954,1.954,0,1,0,0,3.908Z" transform="translate(-104.992 -87.496)" fill="#fff" fill-rule="evenodd"/>
</svg>
