<svg xmlns="http://www.w3.org/2000/svg" width="22.497" height="21.351" viewBox="0 0 22.497 21.351">
  <defs>
    <style>
      .cls-1 {
        fill: #bb5855;
      }
    </style>
  </defs>
  <g id="Group_615" data-name="Group 615" transform="translate(-2232.42 460.122)">
    <path id="Path_1472" data-name="Path 1472" class="cls-1" d="M2235.946-441.321v-.172q0-1.918,0-3.836a.25.25,0,0,0-.118-.23,8.021,8.021,0,0,1-2.853-3.575,7.2,7.2,0,0,1,.813-7,8.591,8.591,0,0,1,4.358-3.31,10.218,10.218,0,0,1,9.071.87,7.888,7.888,0,0,1,3.449,4.073,7.194,7.194,0,0,1-1.078,7.169,9.07,9.07,0,0,1-5.09,3.323,10.476,10.476,0,0,1-4.331.225.378.378,0,0,0-.233.049q-1.923,1.163-3.84,2.335C2236.053-441.379,2236.009-441.356,2235.946-441.321Zm1.123-2.08c.059-.033.1-.053.137-.076.834-.5,1.667-1.008,2.5-1.506a.363.363,0,0,1,.234-.041,9.38,9.38,0,0,0,4.1-.085,7.914,7.914,0,0,0,4.546-2.842,6.053,6.053,0,0,0,.7-6.778,7.135,7.135,0,0,0-3.435-3.277,9.16,9.16,0,0,0-6.527-.6,7.84,7.84,0,0,0-4.257,2.7,6.077,6.077,0,0,0-1.025,6.282,6.969,6.969,0,0,0,2.927,3.42.238.238,0,0,1,.127.236c-.015.8-.023,1.593-.033,2.389C2237.068-443.523,2237.069-443.473,2237.069-443.4Z"/>
    <path id="Path_1473" data-name="Path 1473" class="cls-1" d="M2549.549-203c.106.006.183.014.26.013.421-.006.842-.017,1.263-.018a.487.487,0,0,1,.26.061,7.009,7.009,0,0,0,5.386,1.093.364.364,0,0,1,.31.061c.579.414,1.164.819,1.748,1.227.044.031.09.059.162.106v-.18c0-.632,0-1.265,0-1.9a.24.24,0,0,1,.128-.235,5.865,5.865,0,0,0,2.717-3.675,5.43,5.43,0,0,0-1.036-4.691.376.376,0,0,1-.086-.267c.026-.49.039-.981.056-1.472,0-.023,0-.046,0-.089a.947.947,0,0,1,.1.068,6.832,6.832,0,0,1,2.288,4.457,6.631,6.631,0,0,1-1.511,4.933,7.136,7.136,0,0,1-1.346,1.289.239.239,0,0,0-.111.219c0,1.091,0,2.183,0,3.274v.165c-.062-.038-.1-.062-.146-.089q-1.551-1-3.1-2.006a.387.387,0,0,0-.245-.053,8.265,8.265,0,0,1-5.051-.789,7.683,7.683,0,0,1-1.934-1.385C2549.625-202.912,2549.6-202.947,2549.549-203Z" transform="translate(-308.217 -240.211)"/>
    <path id="Path_1474" data-name="Path 1474" class="cls-1" d="M2404.257-228.618q-2.022,0-4.045,0a.588.588,0,0,1-.634-.6.587.587,0,0,1,.562-.574c.037,0,.075,0,.112,0q4.01,0,8.02,0a.638.638,0,0,1,.519.2.559.559,0,0,1,.115.589.562.562,0,0,1-.478.383,1.4,1.4,0,0,1-.2.007Z" transform="translate(-162.459 -223.854)"/>
    <path id="Path_1475" data-name="Path 1475" class="cls-1" d="M2444.642-103.2q-1.44,0-2.879,0a.576.576,0,0,1-.61-.453.582.582,0,0,1,.485-.71,1.152,1.152,0,0,1,.154-.008q2.858,0,5.716,0a.594.594,0,0,1,.608.363.579.579,0,0,1-.554.808c-.777,0-1.554,0-2.331,0Z" transform="translate(-202.851 -345.749)"/>
  </g>
</svg>
