<svg xmlns="http://www.w3.org/2000/svg" width="28.705" height="27.012" viewBox="0 0 28.705 27.012">
  <path id="Union_7" data-name="Union 7" d="M24.457,25.983H3.261c-.162,0-.355.049-.479-.022a.741.741,0,0,1-.367-.435c-.015-.115.2-.3.353-.387.11-.063.282-.021.426-.021H24.5c.126,0,.285-.047.372.013a3.224,3.224,0,0,1,.448.439,2.4,2.4,0,0,1-.434.4.321.321,0,0,1-.156.032C24.639,26,24.543,25.983,24.457,25.983Zm1.015-1.716c-7.791-.028-15.581-.015-23.372-.015-1.477,0-2.1-.625-2.1-2.108q0-5.951,0-11.9A1.767,1.767,0,0,1,1.984,8.235q2.839,0,5.681,0c-.112.751-.236.865-.921.865-1.6,0-3.209,0-4.814,0-.751,0-1.062.305-1.063,1.044q-.005,6.086,0,12.173c0,.77.306,1.066,1.094,1.066q11.9,0,23.8,0c.775,0,1.073-.3,1.074-1.088q0-6.059,0-12.118c0-.778-.3-1.075-1.084-1.077-1.569,0-3.138,0-4.707,0-.795,0-.807-.011-1.036-.854,2.059,0,4.112-.028,6.163.014.788.015,1.219.609,1.53,1.274v13.42a2.108,2.108,0,0,1-2.216,1.314ZM12.146,21.875a2.687,2.687,0,0,0-.382-.589.992.992,0,0,1,.015-1.552l1.112,1.674a9.24,9.24,0,0,0,3.176-1.788A11.7,11.7,0,0,0,17.2,18.535c1.423-1.6,2.877-3.145,5.066-3.818-.677-1.039-1.3-2.022-1.963-2.983a.521.521,0,0,0-.5-.084,24.3,24.3,0,0,0-2.663,1.6,13.7,13.7,0,0,0-1.7,1.732,11.666,11.666,0,0,1-3.418,2.683c-.368-.739-.322-.681.286-1.163a28.743,28.743,0,0,0,2.746-2.417A13.453,13.453,0,0,1,18.589,11.2c1.8-.888,1.846-.877,2.923.778.571.876,1.147,1.747,1.709,2.627.284.446.192.695-.326.826a7.8,7.8,0,0,0-3.617,2.165c-.649.651-1.256,1.342-1.9,2a10.821,10.821,0,0,1-4.163,2.637,1.4,1.4,0,0,1-.455.1A.659.659,0,0,1,12.146,21.875Zm3.822.018a3.109,3.109,0,0,1,2.052-.925c.749-.052,1.482-.293,2.23-.4a14.23,14.23,0,0,1,2.309-.183,21.58,21.58,0,0,1,2.356.316c.063-1.136.138-2.318.179-3.5,0-.107-.2-.291-.328-.322-.7-.164-1.4-.29-2.054-.419a2.708,2.708,0,0,1,3.042-.122.672.672,0,0,1,.229.494c-.062,1.511-.146,3.021-.238,4.531-.023.372-.243.59-.622.429a9.512,9.512,0,0,0-5.784-.188c-1.1.221-2.224.314-3.336.465Zm-10.9-3.6a3.028,3.028,0,0,1,6.056,0,3.028,3.028,0,1,1-6.056,0Zm3.014-2.164A2.163,2.163,0,0,0,8.1,20.46a2.163,2.163,0,1,0-.01-4.325ZM18.166,19.86a6.927,6.927,0,0,0,.978-.507,2.848,2.848,0,0,0,.646-.71,7.24,7.24,0,0,0,.441-.921A1.354,1.354,0,0,1,20.2,19.7a1.472,1.472,0,0,1-1.073.514A1.613,1.613,0,0,1,18.166,19.86Zm-11-.882.134-.167a1.608,1.608,0,0,0,.53.262,2.322,2.322,0,0,0,.667-.136,2.9,2.9,0,0,0-.409-.453c-.153-.115-.372-.141-.53-.252a.576.576,0,0,1-.017-.958c.184-.145.363-.3.517-.426.185.137.4.273.58.438a1.346,1.346,0,0,1,.2.333H8.726a1.385,1.385,0,0,1-.253-.013c-.122-.023-.242-.122-.352-.107a1.545,1.545,0,0,0-.412.179c.087.115.153.266.268.336.2.12.443.159.635.284a.634.634,0,0,1,0,1.08c-.192.13-.373.274-.564.416ZM1.846,15.8a3.028,3.028,0,0,1,2.273-3.141,2.987,2.987,0,0,1,3.507,1.733l-.79.208a2.186,2.186,0,0,0-2.721-1.028,2.039,2.039,0,0,0-1.4,1.877A2.231,2.231,0,0,0,4.19,17.68v.8A2.889,2.889,0,0,1,1.846,15.8Zm14.622,2.186a1.312,1.312,0,0,1-1.215-1.438,1.509,1.509,0,0,1,1.358-1.592A1.344,1.344,0,0,1,17.835,16.4a1.51,1.51,0,0,1-1.36,1.585Zm-.322-1.39c-.032.139.21.341.328.516l.669-.7-.562-.576A2.923,2.923,0,0,0,16.146,16.6ZM4.889,15.761a2.394,2.394,0,0,1-.764-.58c-.074-.1.076-.427.2-.6a2.942,2.942,0,0,1,.545-.465l.786.774-.127.125a2.867,2.867,0,0,0-.635-.219c-.126-.015-.268.115-.4.18a1.39,1.39,0,0,0,.27.335,3.865,3.865,0,0,0,.644.258,2.759,2.759,0,0,1-.476.2A.079.079,0,0,1,4.889,15.761Zm8.987-2.151c-.113-.008-.3-.192-.3-.293.013-.34-.19-.383-.439-.49a2.937,2.937,0,0,1-.88-.594c-.106-.1-.05-.373-.068-.567.059,0,.126,0,.192,0a.575.575,0,0,1,.372.061,1.564,1.564,0,0,0,1.433.453c.234-.061.551-.309.58-.508s-.22-.5-.426-.638a4.136,4.136,0,0,0-.9-.35c-.823-.31-1.148-.688-1.14-1.327s.309-.959,1.047-1.2l.524-.733.527.684a6.8,6.8,0,0,1,.929.557c.106.085.056.366.076.558-.057,0-.114,0-.172,0a1.455,1.455,0,0,1-.361-.02,10.42,10.42,0,0,0-1.26-.319.631.631,0,0,0-.473.4.71.71,0,0,0,.323.535,4,4,0,0,0,.851.337c.973.352,1.322.754,1.293,1.5-.027.7-.341,1-1.387,1.321-.009.133.018.261-.031.343-.072.119-.2.289-.3.289ZM7.259,11.673a19.162,19.162,0,0,1,3.46-6.311,1.129,1.129,0,0,0,.155-1.33c-.316-.646-.59-1.314-.878-1.975a1.414,1.414,0,0,1,.237-1.7A1.387,1.387,0,0,1,11.894.208c.291.139.555.33.865.518A1.363,1.363,0,0,1,14.917.7,13.3,13.3,0,0,1,16.107.1a1.215,1.215,0,0,1,1.43.336A1.312,1.312,0,0,1,17.767,1.9c-.268.646-.554,1.284-.836,1.931A4.663,4.663,0,0,1,18.2,4.05a3.148,3.148,0,0,1,.995.863c.1.122-.026.432-.05.656-.214-.06-.5-.052-.629-.192a1.28,1.28,0,0,0-1.739-.471l3.076,4.84c-.26.111-.383.168-.51.215s-.237.073-.391.12c-.3-.538-.561-1.091-.893-1.6-.653-.994-1.326-1.973-2.03-2.929a1.028,1.028,0,0,0-.7-.35c-.99-.039-1.983-.027-2.974-.007a.816.816,0,0,0-.559.207,19.8,19.8,0,0,0-3.582,6.123c-.152.459-.255.935-.38,1.4C7.1,12.552,7.041,12.433,7.259,11.673Zm3.586-10.64a.691.691,0,0,0-.084.579,7.355,7.355,0,0,0,.423.993c.253.557.37,1.341.8,1.607.455.279,1.215.062,1.842.062v.051c.523,0,1.048.024,1.569-.014a.663.663,0,0,0,.482-.287c.376-.778.726-1.57,1.043-2.374a.7.7,0,0,0-.073-.62.693.693,0,0,0-.626-.042,4.549,4.549,0,0,0-.927.639c-.308.258-.509.282-.787-.075-.5-.636-.822-.635-1.319.008-.285.368-.488.306-.79.061A5.219,5.219,0,0,0,11.42.964a.5.5,0,0,0-.212-.04A.563.563,0,0,0,10.845,1.033Z" transform="translate(0.5 0.512)" fill="#bb5855" stroke="rgba(0,0,0,0)" stroke-miterlimit="10" stroke-width="1"/>
</svg>
