<svg xmlns="http://www.w3.org/2000/svg" width="25.036" height="23" viewBox="0 0 25.036 23">
  <defs>
    <style>
      .cls-1 {
        fill: #bb5855;
      }
    </style>
  </defs>
  <g id="Group_614" data-name="Group 614" transform="translate(1920.914 28.356)">
    <path id="Path_1466" data-name="Path 1466" class="cls-1" d="M-1831.846-5.356a4.358,4.358,0,0,1-3.63-2,.977.977,0,0,0-.142-.2.666.666,0,0,0-.282-.168c-1.787-.308-3.575-.607-5.363-.911a3.729,3.729,0,0,1-.546-.132.351.351,0,0,1-.192-.553,2.174,2.174,0,0,1,.275-.339,8.944,8.944,0,0,0,2.458-4.946,13.876,13.876,0,0,0,.108-1.824c.031-1.246.054-2.492.06-3.738a5.518,5.518,0,0,1,1.455-3.635,6.581,6.581,0,0,1,3.351-2.134.194.194,0,0,0,.167-.214,2.247,2.247,0,0,1,.9-1.792,1.982,1.982,0,0,1,2.743.31,2.322,2.322,0,0,1,.558,1.348c.026.258.029.256.276.326a6.305,6.305,0,0,1,4.332,3.789,5.251,5.251,0,0,1,.4,1.98c.013,1.465.025,2.93.058,4.395a8.656,8.656,0,0,0,1.972,5.295c.265.335.551.654.825.981a1.455,1.455,0,0,1,.175.238.33.33,0,0,1-.2.51,5.221,5.221,0,0,1-.654.153q-2.574.436-5.15.86a.605.605,0,0,0-.449.293,4.446,4.446,0,0,1-2.6,1.959A6.891,6.891,0,0,1-1831.846-5.356Zm8.754-4.038c-.086-.107-.151-.188-.215-.269a10.26,10.26,0,0,1-2.4-6.529c.005-1.46-.032-2.92-.059-4.38a2.8,2.8,0,0,0-.1-.69,5.27,5.27,0,0,0-2.824-3.447,7.51,7.51,0,0,0-4.747-.576,6,6,0,0,0-3.512,1.9,4.838,4.838,0,0,0-1.33,3.3c-.008,1.251-.032,2.5-.035,3.754a11.066,11.066,0,0,1-.488,3.344,10.338,10.338,0,0,1-1.8,3.321c-.057.072-.108.149-.177.245a2.286,2.286,0,0,0,.226.064c1.068.182,2.136.368,3.206.542a28,28,0,0,0,5.082.491,25.442,25.442,0,0,0,3.03-.112c1.3-.182,2.6-.378,3.9-.579C-1824.6-9.128-1823.862-9.263-1823.092-9.394Zm-11.545,1.815a3.246,3.246,0,0,0,3.138,1.346,3.12,3.12,0,0,0,2.189-1.3A28.582,28.582,0,0,1-1834.637-7.579Zm3.89-18.662a1.258,1.258,0,0,0-1.458-1.289,1.248,1.248,0,0,0-1.078,1.289Z" transform="translate(-76.376)"/>
    <path id="Path_1467" data-name="Path 1467" class="cls-1" d="M-1184.888,242.763a4.7,4.7,0,0,1-1.227,3.225,1.434,1.434,0,0,1-.2.179.375.375,0,0,1-.512,0,.409.409,0,0,1-.065-.516,2.761,2.761,0,0,1,.242-.306,3.94,3.94,0,0,0,.513-4.479,7.756,7.756,0,0,0-.51-.729,4.143,4.143,0,0,1-.255-.354.364.364,0,0,1,.1-.5.4.4,0,0,1,.505.022,4.634,4.634,0,0,1,.545.621A4.744,4.744,0,0,1-1184.888,242.763Z" transform="translate(-710.991 -259.182)"/>
    <path id="Path_1468" data-name="Path 1468" class="cls-1" d="M-1920.914,242.958a4.615,4.615,0,0,1,1.318-3.2.543.543,0,0,1,.336-.158.384.384,0,0,1,.342.611,2.815,2.815,0,0,1-.281.355,3.9,3.9,0,0,0-.457,4.438,9.353,9.353,0,0,0,.649.9.523.523,0,0,1,.141.458.357.357,0,0,1-.559.232,3.274,3.274,0,0,1-.579-.6A4.833,4.833,0,0,1-1920.914,242.958Z" transform="translate(0 -259.566)"/>
    <path id="Path_1469" data-name="Path 1469" class="cls-1" d="M-1241.653,268.3a3.354,3.354,0,0,1-.754,2.115,1.815,1.815,0,0,1-.251.277.423.423,0,0,1-.582.008.386.386,0,0,1-.034-.5c.082-.132.187-.249.28-.375a2.665,2.665,0,0,0-.049-3.368,2.877,2.877,0,0,1-.251-.357.355.355,0,0,1,.065-.458.339.339,0,0,1,.456-.059,2.315,2.315,0,0,1,.477.484A3.524,3.524,0,0,1-1241.653,268.3Z" transform="translate(-656.364 -284.674)"/>
    <path id="Path_1470" data-name="Path 1470" class="cls-1" d="M-1851.637,264.8c.379.041.554.331.381.637a2.453,2.453,0,0,1-.219.3,2.673,2.673,0,0,0,.027,3.5,1.76,1.76,0,0,1,.224.336.351.351,0,0,1-.088.439.391.391,0,0,1-.517.008,3.709,3.709,0,0,1-.445-.52,3.675,3.675,0,0,1,.341-4.509A1.6,1.6,0,0,1-1851.637,264.8Z" transform="translate(-65.897 -283.98)"/>
    <path id="Path_1471" data-name="Path 1471" class="cls-1" d="M-1675.739,104.433a6.863,6.863,0,0,1,2.322.457,1.781,1.781,0,0,1,.36.185.371.371,0,0,1,.133.482.377.377,0,0,1-.464.215c-.359-.109-.709-.251-1.072-.338a5.091,5.091,0,0,0-3.786.485,3.19,3.19,0,0,0-1.752,2.647.7.7,0,0,1-.088.294.4.4,0,0,1-.422.171.409.409,0,0,1-.3-.393,3.268,3.268,0,0,1,.466-1.745,4.582,4.582,0,0,1,2.881-2.193,9.052,9.052,0,0,1,.946-.2C-1676.261,104.455-1676,104.453-1675.739,104.433Z" transform="translate(-232.59 -128.634)"/>
  </g>
</svg>
