<svg xmlns="http://www.w3.org/2000/svg" width="24.708" height="23.122" viewBox="0 0 24.708 23.122">
  <defs>
    <style>
      .cls-1 {
        fill: #bb5855;
      }
    </style>
  </defs>
  <g id="Group_611" data-name="Group 611" transform="translate(981 224.142)">
    <path id="Path_1434" data-name="Path 1434" class="cls-1" d="M-981,570.64c.046,0,.092-.006.138-.006q4.77,0,9.54,0a.3.3,0,0,1,.242.1c.2.206.4.407.606.6a.243.243,0,0,0,.152.063q1.676.005,3.353,0a.242.242,0,0,0,.151-.064c.215-.207.421-.422.637-.628a.26.26,0,0,1,.162-.068q4.808,0,9.616,0c.033,0,.065,0,.11.006,0,.106,0,.206,0,.305q0,.509-.009,1.018l-.711.714c-.318.318-.637.634-.952.954a.253.253,0,0,1-.2.085q-10.486,0-20.972-.005a.288.288,0,0,1-.183-.076c-.529-.522-1.054-1.048-1.58-1.573-.032-.032-.069-.058-.1-.087Zm.785.76c-.042.183.079.28.174.379.342.359.694.708,1.036,1.065a.316.316,0,0,0,.253.1q3.536,0,7.071,0,6.573,0,13.147,0a.3.3,0,0,0,.243-.1c.194-.2.4-.4.594-.6s.372-.4.555-.6a.214.214,0,0,0,.059-.244c-.038,0-.076,0-.113,0q-4.235,0-8.47,0a.278.278,0,0,0-.174.071c-.21.2-.414.405-.616.613a.264.264,0,0,1-.208.089c-1.324,0-2.647,0-3.97-.005a.3.3,0,0,1-.184-.075c-.208-.2-.409-.4-.607-.6a.278.278,0,0,0-.219-.094q-4.217,0-8.433,0Z" transform="translate(0 -774.737)"/>
    <path id="Path_1435" data-name="Path 1435" class="cls-1" d="M-719.012-221.07h-.765v-.767h1.527c0,.046.006.091.006.135q-.011,4.073-.018,8.147a1.032,1.032,0,0,1-.2.543,1.889,1.889,0,0,1-.57.579,1.114,1.114,0,0,1-.628.2q-1.569.019-3.138.035a.553.553,0,0,1-.066-.008v-.763h1.736a3.729,3.729,0,0,1-.14-.506,5.286,5.286,0,0,1-.03-.654q-.029-3.588-.056-7.177c0-.394-.034-.788-.044-1.182a.812.812,0,0,0-.372-.675,1.255,1.255,0,0,0-1.686.248.668.668,0,0,0-.109.341c-.032.548-.068,1.1-.069,1.647q-.012,6.781-.011,13.561c0,.054,0,.108,0,.169h-.774v-.137q.012-7.593.025-15.186a.533.533,0,0,1,.052-.215c.092-.2.194-.4.306-.624h-.2q-4.91,0-9.819,0a.642.642,0,0,0-.235.073,1.652,1.652,0,0,0-.884.935.526.526,0,0,0-.025.2q-.013,7.385-.024,14.77c0,.058,0,.116,0,.183H-736v-.134q0-6.2.006-12.4c0-.776.024-1.552.038-2.329a1.911,1.911,0,0,1,.448-1.126,2.249,2.249,0,0,1,1.25-.866,3.571,3.571,0,0,1,.85-.073q3.2-.012,6.391-.01,2.4,0,4.8.008a.555.555,0,0,1,.251.059,5.487,5.487,0,0,1,.681.4,2.411,2.411,0,0,1,.686,1.009.408.408,0,0,1,.016.161q.023,3.941.045,7.882c0,.352.011.705.034,1.057a.563.563,0,0,0,.518.566.733.733,0,0,0,.871-.358,1.289,1.289,0,0,0,.076-.479q.02-1.725.024-3.45c0-1.209,0-2.418,0-3.626Z" transform="translate(-238.823)"/>
    <path id="Path_1436" data-name="Path 1436" class="cls-1" d="M-858.18,81.457h2.3v.755h-1.524v9.257h16.976v-5h.764v5.767H-858.18Z" transform="translate(-119.723 -297.895)"/>
    <path id="Path_1437" data-name="Path 1437" class="cls-1" d="M-919.047,33.024h-.769c0-.045-.006-.086-.006-.126q.01-5.508.022-11.017a5.926,5.926,0,0,1,.027-.654,1.428,1.428,0,0,1,.6-.978,1.39,1.39,0,0,1,.848-.312c.76-.009,1.521-.014,2.281-.02a.584.584,0,0,1,.069.008v.762h-.132l-2.079.028c-.1,0-.193.007-.289.018a.551.551,0,0,0-.528.525c-.026.326-.038.654-.039.981q-.008,5.307-.009,10.614Z" transform="translate(-59.636 -237.906)"/>
    <path id="Path_1438" data-name="Path 1438" class="cls-1" d="M-551.607,149.655c0-.208-.013-.4,0-.592a.275.275,0,0,0-.2-.317,1.642,1.642,0,0,1-.917-1.075c-.03-.1-.042-.2-.063-.313h.768c.019.086.033.168.055.248a.742.742,0,0,0,.873.5.7.7,0,0,0,.623-.7.481.481,0,0,0-.2-.4c-.209-.154-.43-.291-.647-.433-.3-.195-.611-.369-.892-.585a1.291,1.291,0,0,1-.536-.853,1.051,1.051,0,0,1,.024-.4,1.6,1.6,0,0,1,.916-1.1.276.276,0,0,0,.2-.318c-.016-.191,0-.385,0-.587h.767c0,.224.007.446,0,.666a.184.184,0,0,0,.134.2,1.723,1.723,0,0,1,1.045,1.428h-.768c-.011-.047-.023-.09-.031-.135a.734.734,0,0,0-.89-.622.683.683,0,0,0-.632.641.51.51,0,0,0,.184.448,3.857,3.857,0,0,0,.517.354,5.822,5.822,0,0,1,1.084.706,1.306,1.306,0,0,1,.489.784,1.432,1.432,0,0,1-.54,1.289,1.582,1.582,0,0,1-.426.264.242.242,0,0,0-.165.277c.012.2,0,.409,0,.621Z" transform="translate(-417.423 -357.623)"/>
    <path id="Path_1439" data-name="Path 1439" class="cls-1" d="M-674.571,51.676V50.92h9.254v.756Z" transform="translate(-298.703 -268.127)"/>
    <path id="Path_1440" data-name="Path 1440" class="cls-1" d="M-665.312-71.429v.753h-9.256v-.753Z" transform="translate(-298.706 -148.863)"/>
    <path id="Path_1441" data-name="Path 1441" class="cls-1" d="M-665.3-10.244c0,.216,0,.425,0,.634,0,.037,0,.074-.007.118h-9.256v-.751Z" transform="translate(-298.709 -208.506)"/>
    <path id="Path_1442" data-name="Path 1442" class="cls-1" d="M-91.814,287.027h-.75v-6.538h.75Z" transform="translate(-866.037 -491.909)"/>
    <path id="Path_1443" data-name="Path 1443" class="cls-1" d="M-567.18-132.818h.752v.758h-.752Z" transform="translate(-403.387 -89.022)"/>
    <path id="Path_1444" data-name="Path 1444" class="cls-1" d="M-444.644-132.816h.752v.762h-.752Z" transform="translate(-522.833 -89.024)"/>
    <path id="Path_1445" data-name="Path 1445" class="cls-1" d="M-613.125,264.907h.755v.755h-.755Z" transform="translate(-358.6 -476.72)"/>
    <path id="Path_1446" data-name="Path 1446" class="cls-1" d="M-398.034,264.919v.757h-.758v-.757Z" transform="translate(-567.529 -476.731)"/>
    <path id="Path_1447" data-name="Path 1447" class="cls-1" d="M-505.984-132v-.757h.751V-132Z" transform="translate(-463.04 -89.085)"/>
  </g>
</svg>
