<svg xmlns="http://www.w3.org/2000/svg" width="26.705" height="26.726" viewBox="0 0 26.705 26.726">
  <path id="Union_2" data-name="Union 2" d="M21.786,25.149a2.576,2.576,0,0,1,.273-.353c.482-.474.955-.963,1.477-1.39.175-.142.489-.113.738-.161.006.255.124.61,0,.748a15.937,15.937,0,0,1-1.686,1.612.5.5,0,0,1-.32.124A.527.527,0,0,1,21.786,25.149Zm-6.956.338a7.069,7.069,0,0,1-2.938-5.469c-.021-.349-.016-.7-.025-1.05a.819.819,0,0,0-.058-.144H8.1q-2.936,0-5.873,0A2,2,0,0,1,.016,16.6c0-1.3,0-2.6,0-3.894,0-.388,0-.811.519-.8.477.009.488.406.487.775,0,1.339-.009,2.679,0,4.019.005.713.361,1.111,1.039,1.113,3.193.012,6.387,0,9.581,0a1.455,1.455,0,0,0,.243-.058c0-.687,0-1.381,0-2.074a1.617,1.617,0,0,1,2.441-1.628c.149.06.293.132.526.238V11.431c-.146-.063-.259-.109-.37-.16a1.724,1.724,0,0,1,.675-3.335c1.462-.021,2.926-.024,4.389,0a1.729,1.729,0,0,1,.058,3.457c-.39.027-.782,0-1.224,0V13.97A1.81,1.81,0,0,1,20.5,14.6a2.084,2.084,0,0,1,2.224.142V5.025H1.019V9.22a4.882,4.882,0,0,1-.024,1.108c-.052.218-.321.384-.493.574a6.627,6.627,0,0,1-.476-.544c-.049-.068-.01-.2-.01-.3q0-3.926,0-7.851A1.989,1.989,0,0,1,2.2.016q4.42-.007,8.84,0c.123,0,.28-.043.364.016.182.128.478.343.451.46a1.022,1.022,0,0,1-.48.51c-.12.074-.321.016-.486.016H2.36c-1.025,0-1.337.309-1.341,1.315,0,.514,0,1.028,0,1.589H22.756c0-.688.034-1.363-.011-2.034-.037-.564-.471-.867-1.148-.868q-1.937-.005-3.875,0H15.785c-.165,0-.37.053-.484-.025a.89.89,0,0,1-.409-.51c-.015-.136.238-.326.406-.446.083-.059.239-.021.364-.021,2,0,4-.006,6,0a1.971,1.971,0,0,1,2.11,2.138q.008,6.213,0,12.425v.666a7.042,7.042,0,0,1,1.013.3,1.456,1.456,0,0,1,.926,1.3c-.016,1.559-.122,3.117-.2,4.675a.616.616,0,0,1-.132.4,3.133,3.133,0,0,1-.582.335c-.114-.212-.334-.427-.324-.633.065-1.414.18-2.824.276-4.236.033-.5-.1-.946-.66-1.018-.534-.069-.73.3-.842.783a.655.655,0,0,1-.508.39c-.166-.015-.389-.28-.44-.473a4.543,4.543,0,0,1-.028-.923.73.73,0,0,0-.659-.771c-.435-.056-.645.22-.81.606-.1.237-.348.563-.544.573-.421.022-.472-.366-.455-.72.022-.49-.146-.886-.667-.95-.5-.062-.7.27-.827.73-.052.193-.343.32-.525.479-.151-.211-.427-.418-.433-.634-.04-1.317-.02-2.636-.022-3.956,0-.723-.239-1.08-.716-1.086s-.751.373-.752,1.067q0,3.152,0,6.305c0,.144.05.319-.013.426a4.658,4.658,0,0,1-.482.6c-.169-.193-.462-.373-.483-.58-.066-.632-.008-1.275-.032-1.913a1.474,1.474,0,0,0-1.282-1.44c-.392-.042-.668.1-.668.524,0,1.669-.07,3.343.055,5A5.86,5.86,0,0,0,15.4,24.679a.943.943,0,0,1,.362.682.353.353,0,0,1-.378.343A.958.958,0,0,1,14.83,25.487Zm.4-16.527a1.076,1.076,0,0,0-.8.583c-.077.227.229.585.416.995C15.893,9.3,17,9.031,17.7,9.852a1.913,1.913,0,0,0,1.812.537c.429-.013.78-.225.781-.7a.715.715,0,0,0-.8-.751c-.719-.005-1.438-.015-2.156-.015C16.635,8.922,15.935,8.931,15.235,8.96ZM3.022,15.837a.824.824,0,0,1,.626-.468q2.06-.065,4.122,0a.822.822,0,0,1,.625.47c.068.413-.288.516-.657.513-.7-.006-1.395,0-2.092,0-.656,0-1.312,0-1.968,0H3.66C3.3,16.352,2.954,16.244,3.022,15.837Zm5.129-1.462c-.311,0-.623,0-.934,0-1.171,0-2.342,0-3.513,0-.362,0-.7-.064-.7-.5s.319-.511.686-.511q3.513.007,7.026,0c.371,0,.724.107.65.519a.831.831,0,0,1-.635.463c-.566.023-1.132.028-1.7.028C8.738,14.378,8.445,14.376,8.151,14.375ZM11.112,12.4c-1.316-.019-2.632-.006-3.949-.006s-2.633-.011-3.948,0c-.529.006-.737-.22-.732-.742.014-1.5.012-3,0-4.5,0-.491.2-.713.7-.711q4.011.012,8.021,0c.5,0,.7.217.7.709-.011,1.5-.016,3,0,4.5.007.562-.247.745-.762.745ZM3.528,11.344h7.349V7.494H3.528Z" transform="translate(0.496 0.497)" fill="#bb5855" stroke="rgba(0,0,0,0)" stroke-miterlimit="10" stroke-width="1"/>
</svg>
