<svg xmlns="http://www.w3.org/2000/svg" width="33.067" height="42.563" viewBox="0 0 33.067 42.563">
  <g id="Group_621" data-name="Group 621" transform="translate(-4266.329 482.559)">
    <path id="Path_1493" data-name="Path 1493" d="M4283.593-468.15c.316-.065.631-.143.95-.194a3.915,3.915,0,0,1,4.7,3.9,14.206,14.206,0,0,0,.042,2,1.274,1.274,0,0,0,.682.858c.73.251,1.522.317,2.279.5.672.162,1.332.377,2,.572a9.776,9.776,0,0,0,1.461.422,4.207,4.207,0,0,1,3.674,3.991,14.055,14.055,0,0,1-.979,5.959,12.063,12.063,0,0,0-.967,5.5c.05.633.019,1.273.019,1.909,0,2.075-.643,2.73-2.692,2.733q-4.457.008-8.914.008c-1.792,0-2.488-.69-2.493-2.462,0-1.091-.039-2.186.026-3.273a2.608,2.608,0,0,0-1.047-2.389,55.674,55.674,0,0,0-4.887-3.43c-2.641-1.552-3.067-3.883-.967-6.192.135-.149.248-.319.516-.666h-1.217c-1.7,0-3.4.025-5.093-.021a4.406,4.406,0,0,1-4.33-4.389q-.048-7.64,0-15.28a4.462,4.462,0,0,1,4.485-4.446c5-.023,10-.014,15.007-.007a4.407,4.407,0,0,1,4.662,4.6c.039,2.94.008,5.881.009,8.822,0,1.849.005,3.7,0,5.548,0,.311-.034.622-.053.933l-.328-.008c0-.754.015-1.508,0-2.261a4.217,4.217,0,0,0-3.154-4.178A3.136,3.136,0,0,0,4283.593-468.15Zm-.407,12.886c-.686-.375-1.158-.618-1.615-.888a4.152,4.152,0,0,0-2.862-.647,2.061,2.061,0,0,0-1.63,1.841c-.192.883.3,1.323.977,1.617a19.176,19.176,0,0,1,5.506,3.8,4.612,4.612,0,0,1,1.684,2.923.93.93,0,0,0,.664.613q4.5.053,9-.021c.228,0,.574-.38.651-.645.369-1.274.616-2.584,1-3.853.532-1.767,1.254-3.486,1.018-5.4a2.284,2.284,0,0,0-2.155-2.294,3.533,3.533,0,0,1-2.251-.717,1.553,1.553,0,0,0-1.194-.306,3.921,3.921,0,0,1-2.14-.363,9.532,9.532,0,0,0-2.423-.044V-460.7c0-1.273.04-2.547-.011-3.818a2.115,2.115,0,0,0-2.137-2.045,2.1,2.1,0,0,0-2.056,2.026c-.043.664-.021,1.333-.021,2C4283.184-460.208,4283.186-457.879,4283.186-455.264ZM4276.5-463.6a13.326,13.326,0,0,0,1.215-.958c2.662-2.648,5.29-5.33,7.964-7.966,2.009-1.98,2.032-2.076-.03-4.033-.952-.9-1.341-.917-2.282.016-1.935,1.919-3.844,3.864-5.78,5.782-1.3,1.287-1,1.385-2.3.018-.271-.285-.565-.548-.837-.833-2.285-2.4-2.221-1.923-4.337.213a1.128,1.128,0,0,0,0,1.763q2.681,2.714,5.387,5.4A5.187,5.187,0,0,0,4276.5-463.6Zm17.944,19.514c-.627.107-1.05.43-1.007,1.132a.989.989,0,0,0,1.032,1.033,1.01,1.01,0,0,0,1.085-1.078C4295.568-443.684,4295.114-444,4294.448-444.081Zm-17.062-14.491c1.127,0,2.2.013,3.268-.012a1.761,1.761,0,0,0,.583-.248c-.126-.211-.2-.521-.388-.615A3.439,3.439,0,0,0,4277.386-458.573Z" fill="#fff"/>
  </g>
</svg>
