<svg xmlns="http://www.w3.org/2000/svg" width="48.277" height="43.989" viewBox="0 0 48.277 43.989">
  <g id="Group_617" data-name="Group 617" transform="translate(-1598.483 -839.361)">
    <path id="Path_1482" data-name="Path 1482" d="M1598.483,1231.3a2.753,2.753,0,0,1,2.623-2.685q1.494-.18,2.981-.412a2.514,2.514,0,0,1,2.2.548,1,1,0,0,0,.822.057,26.729,26.729,0,0,1,3.939-1.361,13.928,13.928,0,0,1,4.588-.067,34.772,34.772,0,0,0,8.709.279c1.416-.112,2.834-.2,4.253-.274,1.562-.084,2.472.614,2.654,2a2.377,2.377,0,0,1-2.056,2.807c-3.1.592-6.214,1.132-9.322,1.693-.1.017-.195.025-.29.045-.416.09-.777.259-.683.771.088.482.466.5.86.448,1.07-.13,2.146-.216,3.208-.39q3.405-.558,6.8-1.192a10.387,10.387,0,0,0,4.334-2.07c2.213-1.661,4.442-3.3,6.7-4.9a4.772,4.772,0,0,1,1.784-.785,1.652,1.652,0,0,1,1.985,1.488,2.578,2.578,0,0,1-1.059,2.587c-4.309,3.276-8.622,6.546-12.968,9.772a8.825,8.825,0,0,1-5.313,1.4q-8.118.152-16.234.365a1.949,1.949,0,0,0-1.2.519,3.5,3.5,0,0,1-2.041,1.059c-1.019.139-2.036.3-3.057.417a2.347,2.347,0,0,1-2.865-2.155c-.419-2.884-.764-5.778-1.144-8.667C1598.623,1232.162,1598.549,1231.73,1598.483,1231.3Z" transform="translate(0 -360.097)" fill="#fff"/>
    <path id="Path_1483" data-name="Path 1483" d="M1778.85,858.793c-.491.255-.942.5-1.4.724a.849.849,0,0,1-1.28-.428q-.475-.993-.9-2.01a.946.946,0,0,1,.462-1.307,5.866,5.866,0,0,1,.725-.354,1.066,1.066,0,0,0,.686-1.291c-.1-.871-.153-1.75-.167-2.627a.8.8,0,0,0-.619-.856c-1.911-.683-1.912-.695-1.273-2.6.594-1.774.516-2.132,2.593-1.322a.887.887,0,0,0,.766-.238c.672-.744,1.31-1.523,1.905-2.33a.982.982,0,0,0,.1-.818c-.85-2.019-.863-2.013,1.066-2.988.131-.066.261-.135.393-.2.982-.482,1.325-.428,1.692.593a1.5,1.5,0,0,0,1.9,1.147,3.082,3.082,0,0,1,.513-.019c1.88-.026,1.88-.026,2.546-1.773.275-.721.563-.87,1.3-.621.579.2,1.149.424,1.719.644.6.232.912.706.619,1.275-.672,1.308-.177,2.2.874,2.961a2.756,2.756,0,0,1,.264.255c1.372,1.312,1.063,1.343,2.615.465a.844.844,0,0,1,1.323.434c.3.642.593,1.29.875,1.941a.936.936,0,0,1-.523,1.393,1.8,1.8,0,0,0-1.244,2.4,6.03,6.03,0,0,1,.126,1.607,1.015,1.015,0,0,0,.949,1.2,3.409,3.409,0,0,1,.686.259.845.845,0,0,1,.546,1.124c-.226.724-.461,1.446-.7,2.166-.2.607-.672.858-1.206.564a1.656,1.656,0,0,0-2.511.764.964.964,0,0,1-.2.217c-1.031.9-1.588,1.855-.632,3.19.367.513.111,1.037-.464,1.337s-1.176.6-1.762.909a.822.822,0,0,1-1.228-.389,1.074,1.074,0,0,1-.133-.261c-.276-1.146-1-1.456-2.11-1.237a7.809,7.809,0,0,1-1.685.059.754.754,0,0,0-.84.626c-.67,2.115-.681,2.112-2.752,1.31-.228-.089-.456-.177-.681-.274-.567-.243-.832-.691-.543-1.238a1.856,1.856,0,0,0-.825-2.839A8.9,8.9,0,0,1,1778.85,858.793Zm2.187-6.547a19.06,19.06,0,0,0,.367,1.938,5.6,5.6,0,0,0,6.533,4.016,6.053,6.053,0,1,0-6.9-5.955Z" transform="translate(-164.214)" fill="#fff"/>
    <path id="Path_1484" data-name="Path 1484" d="M2128.622,939.772c-.393.216-.746.436-1.121.61a.928.928,0,0,0-.634.951c.021.659-.387.849-.988.894s-.826-.23-.965-.754a1.7,1.7,0,0,0-2.521-.816.971.971,0,0,1-.874.088c-.385-.271-1.02-.65-.587-1.222.732-.968-.007-1.639-.35-2.383-.073-.157-.445-.217-.688-.247-.73-.087-.816-.576-.8-1.167s.122-1.042.856-.979c.447.039.672-.18.757-.614.051-.258.245-.5.254-.753a2.018,2.018,0,0,0-.153-1.075,1.244,1.244,0,0,1,.513-1.884.868.868,0,0,1,.691.241.73.73,0,0,0,1.033.085c.582-.361,1.286-.544,1.172-1.507-.062-.518.456-.616.9-.627.464-.012.882.032,1.047.581a2.449,2.449,0,0,0,1.9,1.376c.206-.028.4-.254.571-.414.322-.3.647-.474,1.01-.083.348.374.9.649.525,1.343a1.666,1.666,0,0,0,1.189,2.52,1.08,1.08,0,0,1,.53.789c.062.49.084,1.055-.6,1.246a1.8,1.8,0,0,0-.874,2.7c.493.647.026,1.069-.349,1.521-.392.473-.719.222-1.049-.075C2128.907,940.017,2128.8,939.923,2128.622,939.772Zm-.731-4.384a2.464,2.464,0,0,0-2.4-2.542,2.572,2.572,0,0,0,.04,5.132A2.489,2.489,0,0,0,2127.891,935.388Z" transform="translate(-485.153 -83.174)" fill="#fff"/>
    <path id="Path_1485" data-name="Path 1485" d="M2114.371,1204.665l-7,5.009c-.452-1.514-.36-1.822.842-2.565,1.352-.835,2.722-1.641,4.09-2.45A1.833,1.833,0,0,1,2114.371,1204.665Z" transform="translate(-473.997 -340.125)" fill="#fff"/>
    <path id="Path_1486" data-name="Path 1486" d="M2082.689,1192.108c-1.5.852-2.982,1.744-4.524,2.512-.233.116-.751-.342-1.138-.534l0-.256c1.443-.7,2.869-1.44,4.342-2.07.353-.151.862.065,1.3.112Z" transform="translate(-445.951 -328.351)" fill="#fff"/>
    <path id="Path_1487" data-name="Path 1487" d="M1901.242,979.879a3.89,3.89,0,0,1-.028-7.767,3.895,3.895,0,0,1,.028,7.767Z" transform="translate(-278.713 -123.71)" fill="#fff"/>
  </g>
</svg>
