<svg xmlns="http://www.w3.org/2000/svg" width="26.709" height="26.706" viewBox="0 0 26.709 26.706">
  <path id="Union_5" data-name="Union 5" d="M1.219,25.7a.844.844,0,0,1-.778-.756A3.509,3.509,0,0,1,.43,24.6q0-4.944,0-9.887a.607.607,0,0,0-.069-.3c-.105-.176-.237-.335-.358-.5V10.392a1.109,1.109,0,0,1,.864-.7A16.22,16.22,0,0,0,11.779.831,1.437,1.437,0,0,1,12.652,0h.4a1.431,1.431,0,0,1,.884.853,16.245,16.245,0,0,0,7.8,7.745,16.764,16.764,0,0,0,3.257,1.139.848.848,0,0,1,.713.924c0,1,.012,1.991-.008,2.986a.9.9,0,0,1-.205.59.764.764,0,0,0-.217.649q0,4.882,0,9.762a1.674,1.674,0,0,1-.048.471.857.857,0,0,1-.919.584H1.344C1.3,25.706,1.26,25.705,1.219,25.7Zm22.362-.86h.814V14.581h-.814ZM1.309,24.836h.819V14.578H1.309Zm1.715,0H22.677V15.669c-1.436,1.525-3.345,1.4-4.685-.607a3.128,3.128,0,0,1-2.561,1.645,3.135,3.135,0,0,1-2.58-1.642,3.13,3.13,0,0,1-2.573,1.642,3.14,3.14,0,0,1-2.569-1.644,3.315,3.315,0,0,1-2.2,1.614,2.777,2.777,0,0,1-2.489-1.011Zm7.343-8.983a2.225,2.225,0,0,0,1.708-1.276h-3.6A2.2,2.2,0,0,0,10.367,15.853Zm10.339-.006a2.241,2.241,0,0,0,1.657-1.275H18.736A2.195,2.195,0,0,0,20.706,15.846Zm-5.265.005a2.363,2.363,0,0,0,1.841-1.275h-3.67A2.2,2.2,0,0,0,15.441,15.852ZM5.129,15.845A2.273,2.273,0,0,0,7,14.58H3.292A2.267,2.267,0,0,0,5.129,15.845ZM.87,13.688H24.844V12.445H.87Zm1.8-2.115a4.456,4.456,0,0,0,2.41-.525c.142-.071.29-.13.432-.2a10.4,10.4,0,0,0,3.68-2.681,14.2,14.2,0,0,0,2.354-4.4c.154-.438.285-.886.427-1.328a.452.452,0,0,0-.2.2A17.1,17.1,0,0,1,5.951,8.515a17.07,17.07,0,0,1-4.891,2.02c-.109.026-.211.032-.206.192.011.266,0,.533,0,.838.389,0,.765-.015,1.135-.015C2.22,11.549,2.445,11.555,2.67,11.573ZM13.78,2.579c.39,1.039.725,2.1,1.184,3.108a9.461,9.461,0,0,0,3.413,4.144A17.473,17.473,0,0,0,21.452,11.4a2.368,2.368,0,0,0,.95.173c.719-.014,1.438,0,2.157,0h.291a6.731,6.731,0,0,1,0-.678c.024-.235-.059-.326-.291-.384a16.925,16.925,0,0,1-9.523-6.231c-.453-.586-.848-1.217-1.292-1.859A1.168,1.168,0,0,0,13.78,2.579Zm-1.786,2.45a11.255,11.255,0,0,1-5.781,6.437.614.614,0,0,0-.1.081H19.584c-.022-.03-.028-.046-.04-.052-.059-.032-.118-.063-.177-.093a10.654,10.654,0,0,1-4.643-4.294,19.253,19.253,0,0,1-1.77-4.271c-.025-.087-.053-.174-.084-.273C12.571,3.41,12.308,4.229,11.993,5.028Zm.856,18.961c-.233,0-.352-.156-.437-.355a6.107,6.107,0,0,0-1.207-1.713,9.627,9.627,0,0,1-1.02-1.2,2.129,2.129,0,0,1-.081-2.223,1.682,1.682,0,0,1,2.547-.581.275.275,0,0,0,.385.013,1.724,1.724,0,0,1,2.774,1.189c.023.148.033.3.05.448a2.354,2.354,0,0,1-.644,1.593c-.362.406-.766.777-1.1,1.2a11.441,11.441,0,0,0-.824,1.28c-.109.184-.21.347-.442.347Zm-1.512-5.521a.959.959,0,0,0-.6.83,1.5,1.5,0,0,0,.421,1.334c.571.64,1.148,1.273,1.694,1.876.434-.483.893-.989,1.346-1.5a6.117,6.117,0,0,0,.559-.674,1.379,1.379,0,0,0,.04-1.5.694.694,0,0,0-.911-.359,2.326,2.326,0,0,0-.671.45.468.468,0,0,1-.721,0,1.836,1.836,0,0,0-.169-.184,1.169,1.169,0,0,0-.726-.319A.822.822,0,0,0,11.337,18.469Z" transform="translate(0.5 0.5)" fill="#bb5855" stroke="rgba(0,0,0,0)" stroke-miterlimit="10" stroke-width="1"/>
</svg>
