<svg xmlns="http://www.w3.org/2000/svg" width="17.88" height="19.026" viewBox="0 0 17.88 19.026">
  <defs>
    <style>
      .cls-1 {
        fill: #bb5855;
        stroke: #bb5855;
        stroke-width: 0.3px;
      }
    </style>
  </defs>
  <g id="Group_607" data-name="Group 607" transform="translate(-219.715 -339.694)">
    <path id="Path_1384" data-name="Path 1384" class="cls-1" d="M317.909,451.885a9.03,9.03,0,0,1-1.719-.759,3.33,3.33,0,0,1-.993-4.177,3.427,3.427,0,1,1,3.754,4.834,1.425,1.425,0,0,0-.254.1Zm3.2-3.463a2.862,2.862,0,0,0-2.846-2.824,2.838,2.838,0,1,0,.035,5.675A2.838,2.838,0,0,0,321.109,448.422Z" transform="translate(-84.276 -93.315)"/>
    <path id="Path_1385" data-name="Path 1385" class="cls-1" d="M230.172,349.008a4.569,4.569,0,1,0-4.14.072c-.25.091-.446.165-.644.234a8.689,8.689,0,0,0-4.011,2.7,3.853,3.853,0,0,0-.946,2.639c.037,1.05.008,2.1.008,3.231h9.652v.55H219.9c0-1.57-.1-3.132.03-4.676a4.393,4.393,0,0,1,1.846-3c.888-.707,1.874-1.29,2.848-1.948a5.034,5.034,0,0,1-1.673-4.7,4.887,4.887,0,0,1,1.92-3.2,5.137,5.137,0,0,1,6.543,7.914l2.22,1.215-.3.422Z" transform="translate(0 0)"/>
    <path id="Path_1386" data-name="Path 1386" class="cls-1" d="M333.173,463.9h-1.229v-.564h1.2c.019-.423.037-.8.055-1.215h.544V463.3h1.224c.011.221.018.378.029.593h-1.239v1.219h-.581Z" transform="translate(-99.445 -108.485)"/>
  </g>
</svg>
