<svg xmlns="http://www.w3.org/2000/svg" width="26.049" height="26.053" viewBox="0 0 26.049 26.053">
  <g id="Group_3583" data-name="Group 3583" transform="translate(320.926 -797.009)">
    <path id="Path_1557" data-name="Path 1557" d="M-305.8,818.02V819.7c.237,0,.47-.012.7,0a7.849,7.849,0,0,1,1.326.115,2.905,2.905,0,0,1,2.165,2.69c.013.39-.136.553-.519.554h-11.55c-.388,0-.537-.16-.526-.547a2.946,2.946,0,0,1,2.8-2.808c.453-.016.908,0,1.379,0V818.02h-8.633a2.114,2.114,0,0,1-2.272-2.279q0-6.131,0-12.261a2.11,2.11,0,0,1,2.256-2.268q5.6,0,11.209,0c.165,0,.292,0,.356-.2.057-.184.115-.307-.062-.477-.617-.588-.609-.624-.012-1.222q.7-.7,1.392-1.393a.451.451,0,0,1,.744-.005,1.1,1.1,0,0,1,.165.168.386.386,0,0,0,.614.113.338.338,0,0,0,.136-.208c.02-.172,0-.349.008-.524a.412.412,0,0,1,.439-.449q1.234-.011,2.468,0a.419.419,0,0,1,.452.464,2.21,2.21,0,0,1,0,.393c-.032.213.063.3.253.377a.326.326,0,0,0,.427-.082c.605-.619.624-.613,1.243.005.458.458.917.914,1.374,1.374a.452.452,0,0,1,.007.744c-.061.063-.123.124-.185.186-.245.246-.265.394-.065.664a.291.291,0,0,0,.2.07,8.5,8.5,0,0,1,.889.044,2.063,2.063,0,0,1,1.741,2.061c.009,1.6,0,3.2,0,4.8q0,3.82,0,7.64a2.111,2.111,0,0,1-2.265,2.26H-305.8Zm9.237-15.859c0,.661,0,1.3,0,1.939a.425.425,0,0,1-.47.473c-.175,0-.35,0-.525,0a.223.223,0,0,0-.153.062.426.426,0,0,0,.04.648c.068.068.137.135.2.2a.451.451,0,0,1,0,.744c-.462.466-.928.929-1.391,1.393-.6.6-.628.605-1.224,0a.327.327,0,0,0-.425-.093c-.2.083-.289.182-.26.4a2.236,2.236,0,0,1,0,.419.4.4,0,0,1-.415.419q-1.26.012-2.52,0a.408.408,0,0,1-.421-.44c-.007-.183,0-.368-.006-.551a.237.237,0,0,0-.084-.164c-.311-.2-.388-.188-.643.067-.055.056-.111.112-.167.167-.293.288-.494.29-.781,0q-.68-.676-1.356-1.355c-.629-.631-.631-.638,0-1.262a.305.305,0,0,0,.089-.381c-.082-.225-.2-.325-.435-.286a1.77,1.77,0,0,1-.314,0c-.346-.006-.5-.153-.5-.494,0-.28,0-.56,0-.84v-1.186h-10.349a1.275,1.275,0,0,0-1.414,1.411q0,5.029,0,10.057v.277h24.361c0-3.537,0-7.055-.005-10.573A1.14,1.14,0,0,0-296.56,802.162Zm.836,12.513h-24.362v1.034a1.291,1.291,0,0,0,1.458,1.471h21.441c.1,0,.193,0,.289,0a1.248,1.248,0,0,0,1.169-1.145C-295.7,815.587-295.724,815.141-295.724,814.674Zm-2.561-8.84c-.12-.109-.237-.216-.353-.321a.479.479,0,0,1-.108-.636,7.629,7.629,0,0,0,.312-.749c.114-.312.217-.392.562-.394h.459v-1.68c-.176,0-.341,0-.5,0a.47.47,0,0,1-.5-.366,8.242,8.242,0,0,0-.331-.8.456.456,0,0,1,.079-.575c.129-.126.262-.249.365-.345l-1.207-1.215-.305.333a.48.48,0,0,1-.637.109,7.5,7.5,0,0,0-.748-.312c-.312-.115-.393-.217-.394-.562,0-.154,0-.307,0-.459h-1.68c0,.176,0,.341,0,.5a.471.471,0,0,1-.366.5,8.464,8.464,0,0,0-.8.332.456.456,0,0,1-.575-.079c-.127-.13-.249-.263-.343-.364l-1.221,1.205c.105.1.221.2.338.307a.478.478,0,0,1,.107.636,7.359,7.359,0,0,0-.311.749c-.115.312-.217.392-.562.394h-.457v1.68c.169,0,.325.008.48,0a.488.488,0,0,1,.54.391,5.539,5.539,0,0,0,.31.749.479.479,0,0,1-.106.637l-.329.3,1.2,1.218c.1-.1.21-.214.315-.331a.48.48,0,0,1,.637-.106,6.58,6.58,0,0,0,.724.3c.336.121.416.219.418.572,0,.153,0,.307,0,.457h1.68c0-.177,0-.342,0-.506a.469.469,0,0,1,.367-.5,7.91,7.91,0,0,0,.8-.332.462.462,0,0,1,.594.1c.117.126.233.253.343.373Zm-4.215,16.378c-.009-.054-.012-.1-.023-.137a2.088,2.088,0,0,0-2.024-1.531q-3.359-.008-6.719,0a2.252,2.252,0,0,0-.467.054,2.016,2.016,0,0,0-1.559,1.614Zm-6.645-4.18v1.648h2.488v-1.648Z" fill="#bb5855"/>
    <path id="Path_1558" data-name="Path 1558" d="M-313.009,807.8h4.464c.447,0,.578.131.578.577v8.089c0,.446-.132.578-.578.578h-8.927c-.446,0-.577-.131-.577-.578q0-4.044,0-8.088c0-.447.13-.578.577-.578Zm-4.182,2.533v5.85h8.369v-5.85Zm8.372-1.673H-317.2v.807h8.378Z" transform="translate(-1.197 -4.489)" fill="#bb5855"/>
    <path id="Path_1559" data-name="Path 1559" d="M-302.206,829.486v-.822h4.168v.822Z" transform="translate(-7.786 -13.165)" fill="#bb5855"/>
    <path id="Path_1560" data-name="Path 1560" d="M-288.434,804.993a2.944,2.944,0,0,1-2.937,2.937,2.949,2.949,0,0,1-2.942-2.96,2.946,2.946,0,0,1,2.925-2.922A2.944,2.944,0,0,1-288.434,804.993Zm-2.943-2.1a2.105,2.105,0,0,0-2.1,2.111,2.1,2.1,0,0,0,2.117,2.089,2.1,2.1,0,0,0,2.082-2.123A2.1,2.1,0,0,0-291.378,802.889Z" transform="translate(-11.068 -2.096)" fill="#bb5855"/>
    <path id="Path_1561" data-name="Path 1561" d="M-314.212,816.044l1.01.958-.619.572c-.406-.4-.834-.814-1.246-1.241a.38.38,0,0,1,.009-.567c.408-.42.828-.828,1.255-1.253l.552.615Z" transform="translate(-2.386 -7.279)" fill="#bb5855"/>
    <path id="Path_1562" data-name="Path 1562" d="M-307.746,817.009l.936-.9-1.005-.954.641-.595c.409.4.838.814,1.25,1.241a.381.381,0,0,1-.009.567c-.407.421-.827.828-1.251,1.252Z" transform="translate(-5.453 -7.298)" fill="#bb5855"/>
    <path id="Path_1563" data-name="Path 1563" d="M-310.846,817.4l.419-2.517.827.135-.417,2.515Z" transform="translate(-4.193 -7.433)" fill="#bb5855"/>
  </g>
</svg>
