<svg xmlns="http://www.w3.org/2000/svg" width="51.799" height="43.989" viewBox="0 0 51.799 43.989">
  <g id="Group_620" data-name="Group 620" transform="translate(-3249.915 -1599.686)">
    <path id="Path_1491" data-name="Path 1491" d="M3249.915,1623.224v-3.309c.173-1.008.3-2.026.525-3.022a21.913,21.913,0,0,1,24.594-16.989,21.2,21.2,0,0,1,13.947,7.939,21.526,21.526,0,0,1,4.646,17.023,7.317,7.317,0,0,1-.784,3.025,41.9,41.9,0,0,1-3.448,4.074c-.249-.176-.466-.32-.673-.478-1.009-.771-2.007-1.557-3.023-2.317a3.047,3.047,0,0,0-3.418-.467c-2.161,1.089-2.72,3.1-1.388,5.068.429.635.891,1.248,1.354,1.859.917,1.21,1.846,2.412,2.8,3.657-5.539,3.9-11.566,5.344-18.063,3.75-8.53-2.093-14-7.533-16.373-16.015C3250.267,1625.787,3250.142,1624.491,3249.915,1623.224Zm22.059-16.576c-.335,0-.67.014-1,0-.687-.034-.944.305-.92.963.02.574-.011,1.15-.017,1.725a.959.959,0,0,1-.7.966,18.8,18.8,0,0,0-1.956.89c-3.516,1.861-4.333,7.375-.963,9.9a27.459,27.459,0,0,0,3.732,2.1c1.033.544,2.168.922,3.136,1.558a2.058,2.058,0,0,1-.409,3.784,5.932,5.932,0,0,1-2.3.358,10.9,10.9,0,0,1-4.6-1.29c-.585-.3-.9-.114-1.074.466-.2.688-.4,1.379-.594,2.069-.354,1.24-.279,1.524.948,1.955s2.521.723,3.8,1.034c.5.123.745.356.731.883-.016.575,0,1.15.02,1.725a.89.89,0,0,0,.941.959c.646.027,1.294.04,1.939.016a.91.91,0,0,0,.98-1.061c-.018-.551.015-1.1-.01-1.654a1.153,1.153,0,0,1,.926-1.332,5.232,5.232,0,0,0,.675-.242,6.506,6.506,0,0,0,4.392-5.554,6.263,6.263,0,0,0-3.139-6.255c-1.189-.74-2.543-1.212-3.8-1.856a13.222,13.222,0,0,1-2.563-1.53,1.6,1.6,0,0,1,.351-2.662,3.383,3.383,0,0,1,1.283-.393,9.384,9.384,0,0,1,5.025.9c.574.266.912.1,1.082-.491.233-.8.448-1.611.71-2.4a.906.906,0,0,0-.654-1.287c-.951-.312-1.911-.609-2.885-.841-1.239-.3-1.247-.266-1.256-1.539C3273.787,1606.695,3273.787,1606.695,3271.974,1606.648Z" fill="#fff"/>
    <path id="Path_1492" data-name="Path 1492" d="M3493.309,1765.872q-3.169,4.521-6.336,9.042c-1.579,2.256-3.147,4.519-4.73,6.772-.571.813-1.161.868-1.732.127q-3.22-4.184-6.4-8.4c-.578-.768-.522-1.129.107-1.746.7-.687,1.095-.739,1.878-.148,1.568,1.183,3.116,2.39,4.674,3.587.148.114.3.22.5.363,1.417-1.638,2.809-3.246,4.2-4.855q2.373-2.746,4.745-5.493c.172-.2.367-.378.546-.572a.978.978,0,0,1,1.513-.123c.346.289.69.58,1.035.871Z" transform="translate(-191.596 -140.778)" fill="#fff"/>
  </g>
</svg>
