<svg xmlns="http://www.w3.org/2000/svg" width="28.041" height="26.053" viewBox="0 0 28.041 26.053">
  <g id="Group_3580" data-name="Group 3580" transform="translate(-515.432 -508.668)">
    <path id="Path_1554" data-name="Path 1554" d="M543.473,517.862v11.994a.262.262,0,0,0-.043.066,1.858,1.858,0,0,1-1.96,1.486h-.693v.341c0,.675.006,1.351,0,2.026a.887.887,0,0,1-.751.935.983.983,0,0,1-.779-.26c-1.242-.959-2.483-1.919-3.734-2.867a.876.876,0,0,0-.491-.169c-2.775-.01-5.549-.006-8.324-.009a2.671,2.671,0,0,1-.6-.048,1.868,1.868,0,0,1-1.456-1.849c-.008-.533,0-1.067,0-1.647-.115.082-.189.13-.258.184q-2.04,1.568-4.079,3.137a.882.882,0,0,1-1,.129.867.867,0,0,1-.48-.855c.006-.337,0-.675,0-1.013v-2.192c-.393,0-.765,0-1.137,0a2.136,2.136,0,0,1-2.258-2.269q0-7.009,0-14.018a2.147,2.147,0,0,1,2.293-2.295h18.646a2.142,2.142,0,0,1,2.284,2.275q0,2.505,0,5.011v.322h.32c.876,0,1.752-.006,2.628,0a1.878,1.878,0,0,1,1.8,1.352C543.422,517.708,543.448,517.785,543.473,517.862ZM520.58,528.75c.137-.1.231-.17.323-.24,1.143-.88,2.292-1.75,3.423-2.643a1.673,1.673,0,0,1,1.106-.373q5.463.014,10.925,0c.421,0,.546-.112.546-.5q0-7.037,0-14.074c0-.375-.133-.505-.515-.505H517.713c-.4,0-.528.126-.528.52q0,7.023,0,14.047c0,.384.121.507.506.51.639,0,1.278,0,1.917,0a.89.89,0,0,1,.972,1C520.581,527.227,520.58,527.956,520.58,528.75Zm18.445,3.3c0-.514,0-.961,0-1.407a.883.883,0,0,1,.977-.989c.483-.006.968-.008,1.451,0,.2,0,.271-.062.271-.268q-.006-5.545,0-11.089c0-.225-.087-.277-.292-.275-.858.008-1.716,0-2.574,0-.061,0-.122.01-.2.017v.339c0,2.2,0,4.4,0,6.6a2.767,2.767,0,0,1-.088.729,2.115,2.115,0,0,1-2.169,1.536q-4.819,0-9.638,0h-.363v2.012c0,.391,0,.391.392.391q4.3,0,8.6,0a1.394,1.394,0,0,1,.909.306c.816.644,1.646,1.272,2.471,1.906C538.831,531.917,538.9,531.966,539.025,532.052Z" transform="translate(0 0)" fill="#bb5855"/>
    <path id="Path_1555" data-name="Path 1555" d="M533.73,517.208a2.384,2.384,0,0,1-.713,1.722c-.281.3-.586.574-.889.851a2.174,2.174,0,0,0-.8,1.639.838.838,0,0,1-.906.854.872.872,0,0,1-.833-.932,3.521,3.521,0,0,1,1.081-2.576c.315-.317.655-.608.972-.923a1.012,1.012,0,0,0,.163-1.336,1.238,1.238,0,0,0-1.447-.385.886.886,0,0,0-.472.752c-.019.135-.016.274-.042.408a.869.869,0,0,1-1.724-.144,2.668,2.668,0,0,1,2.651-2.87A2.874,2.874,0,0,1,533.73,517.208Z" transform="translate(-3.879 -1.712)" fill="#bb5855"/>
    <path id="Path_1556" data-name="Path 1556" d="M531.081,529.53a.863.863,0,0,1-.909-.877.916.916,0,0,1,1.83.011A.864.864,0,0,1,531.081,529.53Z" transform="translate(-4.508 -5.845)" fill="#bb5855"/>
  </g>
</svg>
