<svg xmlns="http://www.w3.org/2000/svg" width="23.303" height="23.334" viewBox="0 0 23.303 23.334">
  <defs>
    <style>
      .cls-1 {
        fill: #bb5855;
      }
    </style>
  </defs>
  <g id="Group_609" data-name="Group 609" transform="translate(-96.15 -100.773)">
    <path id="Path_1390" data-name="Path 1390" class="cls-1" d="M141.169,101.922c.447.221.865.408,1.265.63.474.262.724.113.891-.375.478-1.394.488-1.364,1.951-1.4a.825.825,0,0,1,.973.694c.436,1.462.38,1.487,1.781.729a.849.849,0,0,1,1.2.17c1.317,1.364,1.207.818.44,2.412-.232.481-.129.733.355.909,1.442.525,1.419.531,1.441,2.063a.812.812,0,0,1-.67.945c-1.576.452-1.516.454-.775,1.8a.879.879,0,0,1-.225,1.245c-1.359,1.272-.82,1.179-2.43.4-.481-.234-.725-.13-.9.363-.484,1.4-.493,1.36-1.946,1.407a.862.862,0,0,1-1-.744c-.427-1.388-.363-1.489-1.747-.715a.864.864,0,0,1-1.239-.193c-1.043-1.1-1.075-1.085-.414-2.427.237-.481.121-.726-.372-.9-1.437-.506-1.416-.516-1.427-2.063a.751.751,0,0,1,.622-.853c1.566-.487,1.611-.376.8-1.888a.728.728,0,0,1,.15-1.049c.319-.27.587-.6.889-.893A2.719,2.719,0,0,1,141.169,101.922Zm-.732,1.856c.191.382.4.769.581,1.167a1.113,1.113,0,0,1-.606,1.409c-.3.108-.612.189-.905.314a.58.58,0,0,0-.319.29c-.2.7-.011,1.078.7,1.265.6.157,1.159.393,1.168,1.07a4.3,4.3,0,0,1-.406,1.265c-.059.179-.188.4-.132.54a.966.966,0,0,0,1.427.477c.4-.185.73-.462,1.279-.289.7.221.752.779.891,1.29.122.448.328.573.785.589a.723.723,0,0,0,.858-.656c.136-.555.269-1.22,1-1.231a5.027,5.027,0,0,1,1.329.371c.2.056.445.184.59.114a.935.935,0,0,0,.456-1.463c-.262-.488-.553-1.008-.12-1.481a3.58,3.58,0,0,1,1.164-.723.69.69,0,0,0,.5-.688c.028-.573-.129-.888-.723-.988-.569-.1-1.149-.312-1.165-.987a2.934,2.934,0,0,1,.371-1.27.688.688,0,0,0-.118-.932c-.368-.391-.677-.488-1.117-.173a3.138,3.138,0,0,1-.536.267,1.107,1.107,0,0,1-1.495-.629c-.1-.283-.167-.577-.282-.853a.57.57,0,0,0-.287-.317c-.711-.2-1.049,0-1.274.692-.037.114-.076.227-.113.341-.325,1-.826,1.212-1.758.748s-.923-.46-1.621.3A1.664,1.664,0,0,0,140.437,103.778Z" transform="translate(-37.106 0)"/>
    <path id="Path_1391" data-name="Path 1391" class="cls-1" d="M230.876,177.172c-.422-.941-.81-1.8-1.188-2.654a1.145,1.145,0,0,1,.455-1.642,1.222,1.222,0,0,1,1.679.571q1.606,2.848,3.188,5.71a2.062,2.062,0,0,1-.02,2.067c-.493.935-.99,1.869-1.541,2.907.711-.091.706.334.7.782-.012.62-.016,1.242,0,1.862.012.45-.147.649-.629.644q-2.552-.03-5.105,0c-.488.006-.628-.2-.61-.65.024-.6.032-1.2,0-1.8-.03-.534.04-.933.766-.838.013-.256.031-.468.034-.681a3.558,3.558,0,0,1,.746-2.111,2.058,2.058,0,0,0,.34-.957,8.243,8.243,0,0,0,.008-1.5A1.4,1.4,0,0,1,230.876,177.172ZM229.4,184.14c.931,0,1.847-.015,2.762.008a.614.614,0,0,0,.651-.387c.487-.963.994-1.915,1.506-2.865a1.543,1.543,0,0,0,0-1.595q-1.51-2.693-3-5.395c-.171-.308-.37-.553-.755-.356s-.249.485-.119.772c.487,1.073.977,2.145,1.448,3.225a2.447,2.447,0,0,1,.239.855c.031.859.034,1.721-.006,2.58-.009.187-.245.363-.376.544-.11-.178-.308-.353-.316-.536-.035-.8-.022-1.6-.012-2.4,0-.337-.064-.634-.452-.639s-.54.263-.534.643a20.966,20.966,0,0,1-.016,2.1,1.884,1.884,0,0,1-.392.991A2.834,2.834,0,0,0,229.4,184.14Zm3.957,2.517V184.9H228.57v1.757Z" transform="translate(-115.826 -63.311)"/>
    <path id="Path_1392" data-name="Path 1392" class="cls-1" d="M103.011,184.1c.551-.06.659.342.629.907-.031.6-.019,1.2,0,1.8.011.427-.146.612-.6.607-1.721-.017-3.443-.014-5.164,0-.412,0-.579-.154-.569-.566.017-.68.018-1.361,0-2.041-.011-.407.04-.729.646-.677-.51-.962-.957-1.851-1.447-2.716a2.364,2.364,0,0,1,.039-2.548c1.034-1.781,2.018-3.59,3.035-5.381a1.2,1.2,0,0,1,1.946-.407,1.136,1.136,0,0,1,.225,1.378c-.408.885-.8,1.776-1.228,2.723,1.053.213,1.255.929,1.18,1.818-.018.219.01.441-.005.66a3.074,3.074,0,0,0,.546,2.053A9.2,9.2,0,0,1,103.011,184.1Zm-.928.036a2.861,2.861,0,0,0-.833-2.613.89.89,0,0,1-.216-.577c-.025-.739-.018-1.48-.007-2.219.006-.4-.071-.761-.539-.777-.507-.018-.457.4-.458.735,0,.74,0,1.48,0,2.22,0,.269.047.654-.366.59-.149-.023-.327-.39-.35-.614a7.891,7.891,0,0,1,1.016-5.062,16.326,16.326,0,0,0,.708-1.519c.135-.287.266-.592-.107-.772s-.589.054-.762.368c-1.032,1.871-2.1,3.726-3.085,5.62a1.6,1.6,0,0,0-.024,1.232c.475,1.054,1.06,2.059,1.62,3.073a.6.6,0,0,0,.384.3C100.052,184.144,101.047,184.132,102.083,184.132Zm.787.775H98.089v1.731h4.781Z" transform="translate(0 -63.306)"/>
    <path id="Path_1393" data-name="Path 1393" class="cls-1" d="M182.173,233.852c0,.839.023,1.678-.018,2.515-.009.193-.239.374-.368.561-.115-.18-.327-.358-.33-.539q-.039-2.515,0-5.031c0-.187.234-.371.359-.556.118.2.329.392.339.595C182.2,232.213,182.173,233.033,182.173,233.852Z" transform="translate(-75.037 -114.403)"/>
    <path id="Path_1394" data-name="Path 1394" class="cls-1" d="M198.359,233.86c0-.819-.025-1.639.017-2.456.011-.213.234-.415.359-.622.118.2.336.39.339.587q.041,2.487,0,4.974c0,.191-.235.379-.36.568-.118-.2-.328-.391-.338-.594C198.336,235.5,198.359,234.679,198.359,233.86Z" transform="translate(-89.919 -114.385)"/>
    <path id="Path_1395" data-name="Path 1395" class="cls-1" d="M164.832,214.606c0,.819.022,1.64-.016,2.457-.009.2-.193.54-.329.558-.4.05-.383-.3-.383-.585,0-1.619-.013-3.238.016-4.856,0-.22.2-.611.339-.622.442-.037.37.361.372.65C164.835,213.008,164.832,213.807,164.832,214.606Z" transform="translate(-59.785 -97.47)"/>
    <path id="Path_1396" data-name="Path 1396" class="cls-1" d="M215.769,214.353c0-.839-.02-1.679.016-2.516.007-.18.212-.352.326-.527.128.171.365.341.368.514q.042,2.546,0,5.094c0,.173-.227.343-.348.515-.121-.167-.339-.33-.346-.5C215.75,216.071,215.769,215.212,215.769,214.353Z" transform="translate(-105.239 -97.252)"/>
    <path id="Path_1397" data-name="Path 1397" class="cls-1" d="M178.286,142.613a2.027,2.027,0,0,1-2-2.051A1.986,1.986,0,0,1,178.3,138.6a2.008,2.008,0,1,1-.014,4.015Zm-.011-3.285a1.279,1.279,0,0,0,.03,2.558,1.347,1.347,0,0,0,1.3-1.306A1.292,1.292,0,0,0,178.275,139.328Z" transform="translate(-70.508 -33.28)"/>
  </g>
</svg>
