<svg xmlns="http://www.w3.org/2000/svg" xmlns:xlink="http://www.w3.org/1999/xlink" width="28.704" height="28.704" viewBox="0 0 28.704 28.704">
  <defs>
    <clipPath id="clip-path">
      <rect id="Rectangle_2002" data-name="Rectangle 2002" width="26.196" height="26.2" fill="#bb5855"/>
    </clipPath>
  </defs>
  <g id="Group_3933" data-name="Group 3933" transform="translate(109.967 -357.033)">
    <rect id="Rectangle_2003" data-name="Rectangle 2003" width="28.704" height="28.704" transform="translate(-109.967 357.033)" fill="#fff" opacity="0"/>
    <g id="Group_3931" data-name="Group 3931" transform="translate(-108.664 358.335)">
      <g id="Group_3930" data-name="Group 3930" clip-path="url(#clip-path)">
        <path id="Path_1669" data-name="Path 1669" d="M13.109,36.736v1.63a5.908,5.908,0,0,1,.9.278,2.024,2.024,0,0,1,1.2,1.873c.008.255,0,.511,0,.766,0,.384-.14.524-.524.524H7.53c-.37,0-.74,0-1.109,0s-.5-.144-.5-.49a7.234,7.234,0,0,1,.026-1.107A2.114,2.114,0,0,1,8.01,38.417V36.736H7.733q-2.562,0-5.123,0A2.522,2.522,0,0,1,0,34.121q0-5.415,0-10.829a2.521,2.521,0,0,1,2.61-2.613h15.9a2.52,2.52,0,0,1,2.617,2.605q0,1.638,0,3.275v.263a1.391,1.391,0,0,0,.846-1.327c.005-.238,0-.475,0-.713v-.7H22.8a13.72,13.72,0,0,1-.015,1.811,2.259,2.259,0,0,1-1.655,1.894v.307q0,3.011,0,6.022A2.523,2.523,0,0,1,18.5,36.735q-2.535,0-5.07,0Zm7.174-9.786v-.261q0-1.65,0-3.3a1.717,1.717,0,0,0-1.876-1.866H2.72A1.717,1.717,0,0,0,.844,23.388q0,4.411,0,8.821v.285H20.267V27.87c-.075-.019-.134-.035-.195-.048A2.3,2.3,0,0,1,18.2,25.891a6.065,6.065,0,0,1-.026-.869c-.007-.387-.159-.538-.55-.541-.234,0-.468,0-.7,0v-.843h.761a1.258,1.258,0,0,1,1.33,1.318,5.377,5.377,0,0,0,.054.919,1.327,1.327,0,0,0,1.214,1.076m.016,6.422H.858a7.938,7.938,0,0,0,.007,1.015,1.683,1.683,0,0,0,1.795,1.5q7.905,0,15.81,0c.053,0,.105,0,.158,0a1.656,1.656,0,0,0,1.611-1.4,10.167,10.167,0,0,0,.06-1.115M6.787,40.949h7.558A1.335,1.335,0,0,0,12.9,39.272H8.2a1.327,1.327,0,0,0-1.409,1.677m2.09-2.537h3.359V36.757H8.877Z" transform="translate(0 -15.607)" fill="#bb5855"/>
        <path id="Path_1670" data-name="Path 1670" d="M83.476,6.761a.435.435,0,0,1-.4-.365c-.228-.81-.466-1.618-.688-2.43a.4.4,0,0,0-.324-.32c-.8-.218-1.586-.453-2.38-.674-.225-.062-.391-.167-.4-.418s.142-.373.363-.451Q82.505,1.082,85.366.055a.473.473,0,0,1,.539.063.48.48,0,0,1,.069.562q-1.016,2.837-2.028,5.675c-.079.222-.184.4-.471.406M84.522,2.2l-.05-.03c-.427.426-.855.851-1.279,1.281a.168.168,0,0,0-.03.138c.114.419.234.836.353,1.254l.059.007.947-2.65m-3.336.257.005.06c.417.118.834.238,1.252.352a.169.169,0,0,0,.138-.027c.43-.425.855-.855,1.281-1.283l-.026-.046Z" transform="translate(-59.836 0)" fill="#bb5855"/>
        <rect id="Rectangle_1999" data-name="Rectangle 1999" width="0.82" height="0.801" transform="translate(21.979 6.782)" fill="#bb5855"/>
        <path id="Path_1671" data-name="Path 1671" d="M26.185,31.02h4.939c.4,0,.539.134.539.535q0,3.262,0,6.524c0,.416-.133.546-.555.546H21.23c-.421,0-.552-.13-.552-.549q0-3.262,0-6.524c0-.4.135-.532.541-.532h4.965m3.855.868H22.3l3.869,3.224,3.867-3.224M22.3,37.759h7.74L27.188,35.38c-.24.2-.461.385-.686.566a.435.435,0,0,1-.658,0c-.23-.186-.457-.376-.689-.567L22.3,37.759m-.775-.467,2.963-2.471-2.963-2.468Zm6.327-2.469L30.8,37.279V32.365l-2.948,2.457" transform="translate(-15.608 -23.413)" fill="#bb5855"/>
        <rect id="Rectangle_2000" data-name="Rectangle 2000" width="0.808" height="0.82" transform="translate(16.077 18.606)" fill="#bb5855"/>
        <rect id="Rectangle_2001" data-name="Rectangle 2001" width="0.818" height="0.813" transform="translate(17.762 18.607)" fill="#bb5855"/>
      </g>
    </g>
  </g>
</svg>
