<svg xmlns="http://www.w3.org/2000/svg" width="43.715" height="43.989" viewBox="0 0 43.715 43.989">
  <g id="Group_619" data-name="Group 619" transform="translate(2050.461 -2397.284)">
    <path id="Path_1488" data-name="Path 1488" d="M-2050.461,2441.261c.087-.864.148-1.708.261-2.544a31.374,31.374,0,0,1,2.012-7.718,20.356,20.356,0,0,1,5.75-8.18,16.38,16.38,0,0,1,4.932-2.812c.068-.025.135-.052.221-.085-4.083-3.268-6.026-7.4-5-12.639a12.127,12.127,0,0,1,5.028-7.669,12.529,12.529,0,0,1,16.767,2.029,12.335,12.335,0,0,1,2.929,6.331,12.3,12.3,0,0,1-.919,6.942,12.11,12.11,0,0,1-4.543,5.28l3.062,1.86a.494.494,0,0,1-.009.119,5.476,5.476,0,0,0-.59,3.065c.027.627,0,1.256,0,1.884v.325h-.355c-.919,0-1.839-.008-2.758,0a4.162,4.162,0,0,0-4.105,3.745,4.134,4.134,0,0,0,3.936,4.422c.992.025,1.984.013,2.976,0,.24,0,.312.062.307.3-.015.773-.006,1.547-.006,2.321a4.043,4.043,0,0,0,.878,3.018Z" fill="#fff"/>
    <path id="Path_1489" data-name="Path 1489" d="M-1582.208,2862.967h-.641c-1.52,0-3.04,0-4.561,0a1.977,1.977,0,0,1-1.817-1.1,1.9,1.9,0,0,1,1.7-2.675c1.165.009,2.33,0,3.5,0,.5,0,1-.011,1.5,0,.24.008.328-.049.326-.312-.012-1.657,0-3.314,0-4.97a2.064,2.064,0,0,1,.538-1.475,1.374,1.374,0,0,1,1.546-.38,2.027,2.027,0,0,1,1.374,1.91q0,2.581,0,5.162c0,.109,0,.217,0,.377h.33q2.553,0,5.107,0a5.174,5.174,0,0,1,.6.021,2.059,2.059,0,0,1,1.81,1.868,1.372,1.372,0,0,1-.154.681,1.972,1.972,0,0,1-1.86,1.2q-2.567,0-5.134,0h-.376v.328c0,1.62,0,3.241,0,4.861a1.928,1.928,0,0,1-.383,1.2,1.818,1.818,0,0,1-1.982.758,2.032,2.032,0,0,1-1.411-1.884c-.007-1.757,0-3.514,0-5.271C-1582.208,2863.187-1582.208,2863.1-1582.208,2862.967Z" transform="translate(-435.843 -429.852)" fill="#fff"/>
    <path id="Path_1490" data-name="Path 1490" d="M-1361.679,3104.8h-2.157a.873.873,0,0,1,.078-.149,3.529,3.529,0,0,0,.8-2.325c.006-.946,0-1.892,0-2.838v-.337a2.441,2.441,0,0,1,.5.01.309.309,0,0,1,.169.22c.169,1.151.341,2.3.479,3.456C-1361.736,3103.476-1361.723,3104.122-1361.679,3104.8Z" transform="translate(-649.124 -663.527)" fill="#fff"/>
  </g>
</svg>
