<svg xmlns="http://www.w3.org/2000/svg" width="27.705" height="25.999" viewBox="0 0 27.705 25.999">
  <g id="Group_3886" data-name="Group 3886" transform="translate(-37.002 -492)">
    <path id="Path_1566" data-name="Path 1566" d="M-1203.641,461.428a2.115,2.115,0,0,1-2.234,1.313c-7.791-.028-15.581-.015-23.371-.015-1.477,0-2.1-.626-2.1-2.107q0-5.951,0-11.9a1.766,1.766,0,0,1,1.984-2.007q2.839,0,5.681,0c-.112.751-.235.865-.92.865-1.6,0-3.21,0-4.815,0-.75,0-1.062.305-1.062,1.044q-.005,6.086,0,12.173c0,.771.306,1.067,1.094,1.067q11.9,0,23.8,0c.775,0,1.073-.3,1.073-1.088q0-6.059,0-12.118c0-.777-.3-1.075-1.084-1.077-1.569,0-3.138,0-4.707,0-.795,0-.808-.011-1.036-.854,2.06,0,4.112-.027,6.164.014.788.016,1.218.609,1.53,1.274Z" transform="translate(1268.348 53.524)" fill="#bb5855"/>
    <path id="Path_1567" data-name="Path 1567" d="M-1159.938,371.649a1.362,1.362,0,0,1,2.157-.026,13.2,13.2,0,0,1,1.191-.6,1.214,1.214,0,0,1,1.43.336,1.311,1.311,0,0,1,.23,1.462c-.268.646-.554,1.284-.835,1.931a4.67,4.67,0,0,1,1.267.219,3.146,3.146,0,0,1,1,.863c.1.122-.027.432-.05.656-.214-.06-.5-.052-.629-.192a1.281,1.281,0,0,0-1.739-.471l3.077,4.84c-.261.111-.384.169-.511.215s-.237.073-.391.12c-.3-.539-.561-1.091-.893-1.6-.652-.993-1.325-1.973-2.031-2.929a1.026,1.026,0,0,0-.7-.35c-.99-.039-1.983-.027-2.974-.007a.809.809,0,0,0-.559.207,19.78,19.78,0,0,0-3.582,6.122c-.153.459-.255.935-.38,1.4-.733-.376-.791-.5-.573-1.256a19.175,19.175,0,0,1,3.461-6.311,1.13,1.13,0,0,0,.154-1.33c-.316-.647-.591-1.314-.877-1.974a1.413,1.413,0,0,1,.236-1.7,1.389,1.389,0,0,1,1.661-.154C-1160.512,371.269-1160.248,371.461-1159.938,371.649Zm1.07,3.547v.051c.523,0,1.048.024,1.568-.014a.666.666,0,0,0,.482-.287c.376-.778.726-1.57,1.043-2.374a.7.7,0,0,0-.073-.62.692.692,0,0,0-.626-.043,4.529,4.529,0,0,0-.927.64c-.308.258-.51.282-.788-.075-.5-.636-.822-.636-1.32.008-.285.369-.487.306-.79.061a5.242,5.242,0,0,0-.979-.656.626.626,0,0,0-.575.069.69.69,0,0,0-.084.578,7.442,7.442,0,0,0,.423.993c.253.557.37,1.341.8,1.606C-1160.255,375.413-1159.495,375.2-1158.868,375.2Z" transform="translate(1209.699 121.077)" fill="#bb5855"/>
    <path id="Path_1568" data-name="Path 1568" d="M-1126.053,477.7l1.112,1.674a9.234,9.234,0,0,0,3.176-1.788,11.635,11.635,0,0,0,1.13-1.085c1.423-1.6,2.877-3.145,5.066-3.818-.676-1.038-1.3-2.022-1.963-2.983a.519.519,0,0,0-.5-.084,24.115,24.115,0,0,0-2.663,1.6,13.633,13.633,0,0,0-1.7,1.731,11.666,11.666,0,0,1-3.418,2.682c-.367-.739-.322-.681.286-1.162a28.924,28.924,0,0,0,2.747-2.418,13.448,13.448,0,0,1,3.534-2.892c1.8-.889,1.846-.877,2.924.778.57.875,1.146,1.747,1.708,2.627.285.446.193.695-.325.826a7.788,7.788,0,0,0-3.618,2.164c-.648.651-1.256,1.342-1.9,2a10.828,10.828,0,0,1-4.163,2.637c-.486.173-.827.141-1.069-.352a2.644,2.644,0,0,0-.382-.588A.992.992,0,0,1-1126.053,477.7Z" transform="translate(1174.834 34.039)" fill="#bb5855"/>
    <path id="Path_1569" data-name="Path 1569" d="M-1197.673,602.833h-10.6c-.162,0-.356.049-.479-.022a.743.743,0,0,1-.368-.435c-.015-.115.2-.3.353-.387.109-.063.281-.021.425-.021h21.3c.126,0,.285-.046.372.013a3.2,3.2,0,0,1,.448.44,2.373,2.373,0,0,1-.434.4c-.111.061-.282.015-.426.015Z" transform="translate(1248.533 -84.851)" fill="#bb5855"/>
    <path id="Path_1570" data-name="Path 1570" d="M-1184.71,514.489a3.013,3.013,0,0,1,3.02-3.029,3.039,3.039,0,0,1,3.036,3.025,3.044,3.044,0,0,1-3.032,3.032A3.022,3.022,0,0,1-1184.71,514.489Zm.866.007a2.154,2.154,0,0,0,2.165,2.155,2.18,2.18,0,0,0,2.16-2.172,2.176,2.176,0,0,0-2.177-2.154A2.15,2.15,0,0,0-1183.844,514.5Z" transform="translate(1226.777 -4.191)" fill="#bb5855"/>
    <path id="Path_1571" data-name="Path 1571" d="M-1084.358,523.536a3.112,3.112,0,0,1,2.052-.925c.749-.052,1.483-.294,2.23-.395a14.307,14.307,0,0,1,2.309-.183,21.714,21.714,0,0,1,2.356.316c.063-1.136.138-2.317.179-3.5,0-.107-.2-.291-.329-.322-.7-.164-1.4-.29-2.053-.419a2.707,2.707,0,0,1,3.042-.123.668.668,0,0,1,.228.494c-.062,1.511-.145,3.022-.238,4.532-.023.372-.243.59-.621.43a9.507,9.507,0,0,0-5.785-.188c-1.1.221-2.223.314-3.336.465Z" transform="translate(1137.328 -9.644)" fill="#bb5855"/>
    <path id="Path_1572" data-name="Path 1572" d="M-1117.141,444.8c-.009.133.018.262-.032.343-.073.121-.208.3-.3.289-.112-.008-.3-.192-.3-.294.012-.34-.19-.383-.439-.489a2.938,2.938,0,0,1-.88-.594c-.106-.1-.051-.373-.069-.567.192.017.444-.039.564.063a1.563,1.563,0,0,0,1.433.453c.234-.061.55-.309.579-.507s-.22-.5-.425-.638a4.144,4.144,0,0,0-.9-.351c-.823-.309-1.148-.688-1.14-1.327s.309-.959,1.047-1.2l.524-.732.526.684a6.793,6.793,0,0,1,.929.557c.106.084.055.366.076.558a2.642,2.642,0,0,1-.533-.018,10.529,10.529,0,0,0-1.26-.32.631.631,0,0,0-.473.4.709.709,0,0,0,.323.534,4.039,4.039,0,0,0,.85.337c.974.351,1.323.754,1.294,1.5C-1115.78,444.179-1116.1,444.485-1117.141,444.8Z" transform="translate(1168.355 60.174)" fill="#bb5855"/>
    <path id="Path_1573" data-name="Path 1573" d="M-1208.618,488.4l-.791.209a2.185,2.185,0,0,0-2.72-1.028,2.039,2.039,0,0,0-1.4,1.877,2.23,2.23,0,0,0,1.475,2.227c0,.266,0,.531,0,.8a2.889,2.889,0,0,1-2.344-2.677,3.028,3.028,0,0,1,2.273-3.141A2.986,2.986,0,0,1-1208.618,488.4Z" transform="translate(1253.246 17.998)" fill="#bb5855"/>
    <path id="Path_1574" data-name="Path 1574" d="M-1090.95,510.186a1.511,1.511,0,0,1,1.359-1.592,1.345,1.345,0,0,1,1.224,1.446,1.508,1.508,0,0,1-1.367,1.584A1.312,1.312,0,0,1-1090.95,510.186Zm1.89-.14-.563-.576a2.933,2.933,0,0,0-.434.763c-.032.139.21.342.328.516Z" transform="translate(1143.205 -1.636)" fill="#bb5855"/>
    <path id="Path_1575" data-name="Path 1575" d="M-1064.131,536.18a6.836,6.836,0,0,0,.978-.506,2.853,2.853,0,0,0,.646-.71,7.2,7.2,0,0,0,.441-.921,1.354,1.354,0,0,1-.027,1.982A1.42,1.42,0,0,1-1064.131,536.18Z" transform="translate(1119.299 -24.32)" fill="#bb5855"/>
    <path id="Path_1576" data-name="Path 1576" d="M-1192.14,501.782a2.925,2.925,0,0,0-.634-.219c-.126-.015-.269.116-.4.181a1.411,1.411,0,0,0,.27.335,3.906,3.906,0,0,0,.644.258c-.255.1-.434.232-.515.187a2.394,2.394,0,0,1-.764-.58c-.074-.1.076-.426.2-.6a2.949,2.949,0,0,1,.546-.465l.785.774Z" transform="translate(1234.67 5.236)" fill="#bb5855"/>
    <path id="Path_1577" data-name="Path 1577" d="M-1164.533,525.992c.185.137.4.273.579.438a1.331,1.331,0,0,1,.2.333,2.321,2.321,0,0,1-.364-.013c-.121-.022-.242-.122-.352-.107a1.547,1.547,0,0,0-.412.18c.087.115.153.266.268.336.2.119.443.159.635.283a.634.634,0,0,1,0,1.08c-.192.129-.373.274-.564.416l-.887-.815.135-.168a1.607,1.607,0,0,0,.53.262,2.362,2.362,0,0,0,.667-.136,2.976,2.976,0,0,0-.409-.453c-.154-.115-.372-.141-.531-.252a.577.577,0,0,1-.017-.959C-1164.866,526.273-1164.688,526.12-1164.533,525.992Z" transform="translate(1209.59 -17.145)" fill="#bb5855"/>
  </g>
</svg>
