<svg xmlns="http://www.w3.org/2000/svg" width="22.48" height="22.479" viewBox="0 0 22.48 22.479">
  <path id="Union_9" data-name="Union 9" d="M4.574,19.581c0-.025.005-.047.01-.068q.324-1.416.647-2.832a.473.473,0,0,0,.032-.2c-.014-.053-.083-.093-.128-.138-.105-.108-.214-.212-.316-.324a.137.137,0,0,0-.151-.046c-.5.117-1,.23-1.5.345l-1.444.331-.067.011C1.1,15.333.553,14.009,0,12.677c.032-.022.063-.043.095-.063l2.493-1.55c.113-.071.112-.071.11-.2,0-.164-.006-.328,0-.49a.184.184,0,0,0-.1-.193Q1.351,9.408.105,8.63L0,8.562C.552,7.231,1.1,5.9,1.657,4.569l.129.028q1.431.327,2.86.657a.172.172,0,0,0,.191-.059c.119-.13.246-.254.374-.374a.144.144,0,0,0,.046-.159Q4.926,3.227,4.6,1.792l-.03-.135L8.561,0c.026.04.049.074.07.109q.778,1.25,1.554,2.5a.163.163,0,0,0,.168.091c.18-.007.359-.005.539,0a.152.152,0,0,0,.154-.083q.776-1.257,1.559-2.51c.02-.032.041-.065.069-.108C14,.549,15.327,1.1,16.662,1.654c-.005.036-.009.07-.017.1q-.285,1.253-.572,2.5c-.031.138-.059.276-.1.412a.126.126,0,0,0,.045.142c.134.129.266.259.394.4a.144.144,0,0,0,.159.046q.923-.215,1.848-.424l1.1-.251.06-.012q.828,1.993,1.657,3.991c-.038.025-.069.047-.1.067q-1.254.78-2.51,1.558a.159.159,0,0,0-.089.16c.006.186.005.373,0,.558a.141.141,0,0,0,.076.139q1.265.783,2.526,1.57l.1.063-1.655,3.988c-.03,0-.058-.007-.084-.013q-1.435-.328-2.87-.657c-.178-.041-.124-.051-.247.073s-.239.241-.363.358a.123.123,0,0,0-.043.133q.331,1.43.657,2.86c.012.052.021.105.032.164l-3.987,1.655c-.023-.033-.045-.064-.064-.1l-1.556-2.5c-.01-.017-.022-.032-.03-.049a.1.1,0,0,0-.1-.055c-.205,0-.41,0-.616,0-.066,0-.089.035-.117.079q-.779,1.255-1.56,2.51l-.072.112Zm.654-4.874A9.783,9.783,0,0,0,6.52,16a.116.116,0,0,1,.045.132q-.312,1.33-.62,2.661c-.006.027-.01.055-.015.089l2.165.895,1.538-2.452c.333.017.66.049.985.049s.66-.031,1-.049l.506.811q.257.412.514.824c.169.271.335.544.51.815l2.163-.894a.626.626,0,0,0-.01-.063c-.038-.163-.075-.325-.113-.488q-.255-1.1-.511-2.192a.119.119,0,0,1,.044-.14,9.9,9.9,0,0,0,1.247-1.24c.11-.128.065-.107.225-.07q1.293.3,2.587.6c.033.008.067.013.1.022l.895-2.166-.09-.059q-1.146-.718-2.292-1.436a.131.131,0,0,1-.073-.146c.022-.188.036-.377.048-.566a7.135,7.135,0,0,0-.045-1.2.149.149,0,0,1,.083-.168q1.142-.706,2.28-1.418c.03-.018.058-.038.09-.059-.3-.726-.6-1.445-.895-2.165l-.115.023q-1.312.305-2.624.611a.124.124,0,0,1-.147-.049A9.8,9.8,0,0,0,14.8,5.3c-.046-.041-.111-.076-.127-.126A.362.362,0,0,1,14.7,5q.265-1.143.532-2.287c.027-.117.053-.236.081-.359l-2.166-.9c-.027.041-.049.073-.068.105L11.669,3.808c-.074.117-.074.117-.214.1l-.019,0c-.224-.015-.448-.036-.672-.046a7.414,7.414,0,0,0-1,.049c-.136.013-.136.013-.206-.1l-1.4-2.255c-.019-.031-.041-.062-.064-.1l-2.16.894c0,.031.005.053.011.075q.127.548.255,1.1.185.791.37,1.583a.1.1,0,0,1-.035.118A9.893,9.893,0,0,0,5.239,6.518a.121.121,0,0,1-.14.044q-1.152-.271-2.3-.536l-.437-.1-.9,2.168.095.061L3.773,9.545c.15.094.151.094.133.272a6.732,6.732,0,0,0-.017,1.412c.012.108.016.218.026.326a.076.076,0,0,1-.044.086c-.023.012-.044.027-.066.04l-2.255,1.4c-.03.018-.058.038-.09.059l.9,2.167.451-.1,2.3-.535a.224.224,0,0,1,.049-.007A.091.091,0,0,1,5.228,14.708Zm5.386-.166a3.923,3.923,0,1,1,3.928-3.923,3.93,3.93,0,0,1-3.928,3.923ZM7.865,10.614a2.753,2.753,0,1,0,2.767-2.749h-.008A2.744,2.744,0,0,0,7.865,10.614Z" transform="translate(0.621 0.62)" fill="#bb5855" stroke="rgba(0,0,0,0)" stroke-miterlimit="10" stroke-width="1"/>
</svg>
