<svg xmlns="http://www.w3.org/2000/svg" width="47.5" height="37.844" viewBox="0 0 47.5 37.844">
  <g id="Group_616" data-name="Group 616" transform="translate(-8.948 -1436.814)">
    <path id="Path_1476" data-name="Path 1476" d="M188.72,1815.317c.139-5.419,1.8-10.092,6.015-13.788a8.906,8.906,0,0,0,13.637-.066c.882.976,1.817,1.851,2.563,2.866a18.874,18.874,0,0,1,3.427,10.365c.044.75-.44.84-.908.926-2.781.511-5.558,1.054-8.355,1.463A42.919,42.919,0,0,1,188.72,1815.317Z" transform="translate(-168.916 -342.628)" fill="#fff"/>
    <path id="Path_1477" data-name="Path 1477" d="M532.082,1655.388l.911-5.03a8.851,8.851,0,0,0,8.923-2.91,15.44,15.44,0,0,1,5.315,8.484c.375,1.484.5,3.031.737,4.55.084.541-.079.891-.678.99-3.068.5-6.132,1.038-9.2,1.513a1.066,1.066,0,0,1-.906-.417A18.459,18.459,0,0,0,532.082,1655.388Z" transform="translate(-491.542 -197.913)" fill="#fff"/>
    <path id="Path_1478" data-name="Path 1478" d="M14.965,1646.387a8.853,8.853,0,0,0,8.718,3c.358,1.512.72,2.954,1.024,4.407a.978.978,0,0,1-.254.789,19.27,19.27,0,0,0-4.782,6.8,1.165,1.165,0,0,1-.918.583c-3.071-.467-6.135-.992-9.191-1.549a.952.952,0,0,1-.614-.675C9.145,1654.52,10.832,1649.956,14.965,1646.387Z" transform="translate(0 -196.916)" fill="#fff"/>
    <path id="Path_1479" data-name="Path 1479" d="M290.607,1607.617a7.04,7.04,0,1,1,7.046-7.115A7.044,7.044,0,0,1,290.607,1607.617Z" transform="translate(-257.965 -147.259)" fill="#fff"/>
    <path id="Path_1480" data-name="Path 1480" d="M480.294,1444.461a7.022,7.022,0,0,1-8.916,6.8,3.281,3.281,0,0,1-1.294-1.088c-.961-1.09-1.784-2.321-2.841-3.3a2.635,2.635,0,0,1-1.063-1.931,7.066,7.066,0,1,1,14.114-.483Z" transform="translate(-429.607 -0.525)" fill="#fff"/>
    <path id="Path_1481" data-name="Path 1481" d="M117.222,1444.323a2.485,2.485,0,0,1-1.231,2.113,11.007,11.007,0,0,0-2.656,3.165,2.334,2.334,0,0,1-1.6,1.211,7.086,7.086,0,1,1-2.072-13.973C113.614,1436.493,117.12,1439.733,117.222,1444.323Z" transform="translate(-88.421 0)" fill="#fff"/>
  </g>
</svg>
